<?xml version="1.0" encoding="utf-8"?>
<!-- Generator: Adobe Illustrator 23.1.0, SVG Export Plug-In . SVG Version: 6.00 Build 0)  -->
<svg version="1.1" id="Layer_1" xmlns="http://www.w3.org/2000/svg" xmlns:xlink="http://www.w3.org/1999/xlink" x="0px" y="0px"
	 viewBox="0 0 709.1 281.8" style="enable-background:new 0 0 709.1 281.8;" xml:space="preserve">
<style type="text/css">
	.st0{clip-path:url(#SVGID_2_);}
	.st1{fill:#FFFFFF;}
	.st2{fill:#19255B;}
</style>
<title>psp-logo</title>
<g>
	<defs>
		<rect id="SVGID_1_" width="709.2" height="281.8"/>
	</defs>
	<clipPath id="SVGID_2_">
		<use xlink:href="#SVGID_1_"  style="overflow:visible;"/>
	</clipPath>
	<g class="st0">
		<path class="st1" d="M327.9,256v-60.4c0-3.3,1.9-5.1,5.1-5.1h27c18.1,0,27.9,9.2,27.9,23.6s-9.5,23.5-27.9,23.5h-13V256
			c0,3.3-1.9,5.1-5.1,5.1H333C329.7,261.2,327.9,259.3,327.9,256 M359.7,223c5,0,8.7-2.9,8.7-8.4c0-5.6-3.7-8.6-8.7-8.6H347V223
			L359.7,223z"/>
		<path class="st1" d="M444.2,228.7v27.5c0,3.3-1.7,5-5,5h-4.5c-3.1,0-4.9-1.9-4.9-5v-0.4c-4.7,4.4-10.9,6.8-17.4,6.8
			c-12.9,0-21.4-6.9-21.4-17.3c0-11.2,9.2-18.6,23.4-18.6c4.2,0.1,8.4,0.9,12.4,2.3v-2c0-5.1-3.6-8.1-9.9-8.1
			c-4.3,0-8.5,1.1-12.2,3.1c-2.4,1.3-4.8,1.1-6.3-2l-1.2-2.5c-1.9-3.5-1-5.4,1.3-6.8c5.3-3.4,13.1-5.3,19.7-5.3
			C431.3,205.3,444.2,211.1,444.2,228.7 M427.3,244.2v-4.4c-3.1-1.5-6.4-2.3-9.8-2.4c-5.3,0-8.8,2.8-8.8,6.8s3.3,6.8,8.6,6.8
			c5.9,0,10-3.7,10-6.6"/>
		<path class="st1" d="M512.3,234c0,16-11.4,28.6-27.2,28.6c-4.9,0.1-9.7-1.3-13.8-3.9v18.1c0,3.1-1.7,5-4.9,5h-9
			c-3.1,0-4.9-1.9-4.9-5v-65.5c0-3.1,1.7-5,4.9-5h5.3c3.1,0,4.9,1.9,4.9,5v0.8c4.8-4.3,11-6.6,17.5-6.6
			C500.8,205.4,512.3,217.9,512.3,234 M493.7,234c0-7.1-4.8-12.5-11.7-12.5c-6.5,0-11.6,4.9-11.6,12.5s5.1,12.5,11.6,12.5
			C488.9,246.5,493.7,241.1,493.7,234"/>
		<path class="st1" d="M552.9,249.2c4.2-0.1,8.3-1.4,11.6-3.9c2-1.5,3.6-2.3,5.7-0.1l3.7,3.8c2.4,2.3,1.5,4.1,0.2,5.5
			c-4.9,5.2-14.8,8-23.4,8c-17.4,0-30.1-11.7-30.1-28.7c0-16.4,12.2-28.5,29.2-28.5c8.7,0,15.9,3,20.5,7.7c5.1,5.3,8,12.3,7.9,19.7
			c0,3.8-1,5.2-5,5.2h-34.5C539.6,245.3,545.7,249.2,552.9,249.2 M538.9,227.7H560c-0.3-2.4-1.4-4.6-3-6.3c-2-2-4.8-3.1-7.6-3
			C543.6,218.4,539.6,221.9,538.9,227.7"/>
		<path class="st1" d="M586.6,256.2v-65.8c0-3.1,1.7-4.4,5-5l8.8-1.7c3.2-0.6,5.1,1.7,5.1,5v67.6c0,3.1-1.8,5-5,5h-8.9
			C588.3,261.1,586.6,259.3,586.6,256.2"/>
		<path class="st1" d="M327,165.3c-2.5-2.3-3.1-4.8-0.9-7.3l3.9-4.6c2.2-2.5,4.7-3,7.2-0.9c4.3,3.7,11.5,6.8,17.2,6.8
			c6.2,0,10.1-2.3,10.1-5.8c0-5-6-5.5-13.9-7.9c-10.2-3-22.6-8.7-22.6-22.3c0-12.6,11.3-21.3,27.5-21.3c8.6-0.1,17,2.6,23.9,7.8
			c2.6,2.2,3.5,4.6,1.2,7.2l-3.7,4.6c-2.1,2.5-4.5,2.9-7.2,0.9c-3.5-2.7-8.3-5.3-13.9-5.3c-5,0-8.2,2.1-8.2,5.3
			c0,4,5.1,5.9,10.4,7.5c12.1,3.7,26.1,7.6,26.1,23.5c0,14.2-13,21.8-28.6,21.8C343.9,175.4,333.6,171.5,327,165.3"/>
		<path class="st1" d="M424.6,162.2c4.2,0,8.3-1.4,11.6-3.9c2-1.5,3.6-2.3,5.6-0.1l3.7,3.8c2.4,2.3,1.5,4.1,0.2,5.5
			c-4.9,5.2-14.8,8-23.4,8c-17.4,0-30.1-11.7-30.1-28.7c0-16.4,12.2-28.5,29.2-28.5c8.7,0,15.9,3,20.5,7.7c5.1,5.3,8,12.4,7.9,19.7
			c0,3.8-1,5.2-5,5.2h-34.5C411.3,158.3,417.4,162.2,424.6,162.2 M410.6,140.7h21.2c-0.3-2.4-1.4-4.6-3-6.3c-2-2-4.8-3.1-7.6-3
			C415.4,131.4,411.4,135,410.6,140.7"/>
		<path class="st1" d="M548.2,142.1v27c0,3.1-1.7,5-4.9,5h-9c-3.2,0-4.9-1.9-4.9-5v-25.6c0-5.5-3-9.1-8.3-9.1s-8.5,3.6-8.5,9.1v25.6
			c0,3.1-1.7,5-4.9,5h-9c-3.1,0-4.9-1.9-4.9-5v-25.6c0-5.5-3-9.1-8.3-9.1s-8.5,3.6-8.5,9.1v25.6c0,3.1-1.7,5-4.9,5h-9
			c-3.1,0-4.9-1.9-4.9-5v-44.9c0-3.2,1.7-5,4.9-5h5.7c3.1,0,4.9,1.8,4.9,5v2.9c3.7-5.6,10.1-8.9,16.8-8.8c7.3,0,13.1,2.7,16.9,7.5
			c4.5-4.9,11-7.7,17.7-7.5C538.8,118.4,548.2,127.6,548.2,142.1"/>
		<path class="st1" d="M327.9,80.7V20.3c0-3.3,1.9-5.1,5.1-5.1h27c18.1,0,27.9,9.2,27.9,23.6s-9.6,23.5-27.9,23.5h-13v18.5
			c0,3.3-1.9,5.1-5.1,5.1H333C329.7,85.8,327.9,84,327.9,80.7 M359.7,47.7c5,0,8.7-2.9,8.7-8.4c0-5.6-3.7-8.6-8.7-8.6H347v17
			L359.7,47.7z"/>
		<path class="st1" d="M437.2,36l-2.1,8.2c-0.9,3-2.7,3.7-4.6,2.9c-1.8-0.6-3.7-1-5.6-1.1c-6.4,0-9.9,4.2-9.9,10.6v24.2
			c0,3.2-1.7,5-4.9,5h-9c-3.1,0-4.9-1.8-4.9-5V36c0-3.1,1.7-5,4.9-5h5.8c3.1,0,4.9,1.8,4.9,5v2.6c3.8-5.3,8.9-8.5,14.9-8.5
			c2.7,0,5.3,0.4,7.8,1.2C436.3,32,438,32.9,437.2,36"/>
		<path class="st1" d="M438.9,58.7c0-16.4,12.7-28.6,30.3-28.6s30.3,12.2,30.3,28.6s-12.7,28.6-30.3,28.6S438.9,75.1,438.9,58.7
			 M480.9,58.7c0-7.2-4.9-12.5-11.7-12.5s-11.8,5.3-11.8,12.5s5,12.5,11.8,12.5S481,65.8,480.9,58.7"/>
		<path class="st1" d="M502.6,103.8l-3.5-6.5c-1.5-2.8-0.9-5.2,2-6.8c6.5-3.8,6.8-6,6.8-17.7V36c0-3.1,1.9-5,5-5h8.9
			c3.2,0,5,1.8,5,5v38c0,17.8-2,24.3-17.3,31.7C506.6,107.1,504.1,106.6,502.6,103.8 M506,11.3C506,5.1,511.1,0,517.3,0
			c6.2,0,11.3,5.1,11.3,11.3s-5.1,11.3-11.3,11.3l0,0C511.1,22.6,506.1,17.6,506,11.3C506,11.3,506,11.3,506,11.3"/>
		<path class="st1" d="M567.4,73.9c4.2,0,8.2-1.4,11.6-3.9c2-1.5,3.6-2.3,5.7-0.1l3.7,3.8c2.4,2.3,1.5,4.1,0.2,5.5
			c-4.9,5.2-14.8,8-23.3,8c-17.4,0-30.1-11.7-30.1-28.7c0-16.4,12.2-28.5,29.2-28.5c8.7,0,15.9,3,20.5,7.7c5.1,5.3,8,12.3,7.9,19.7
			c0,3.8-1,5.2-5,5.2h-34.5C554.2,70,560.3,73.9,567.4,73.9 M553.4,52.4h21.2c-0.3-2.4-1.4-4.6-3-6.3c-2-2-4.8-3.1-7.6-3.1
			C558.2,43,554.2,46.6,553.4,52.4"/>
		<path class="st1" d="M637.7,83.4c-3.4,2.4-8.5,3.8-13.8,3.8c-10.9,0-21.3-6.2-21.3-21.1V44.7h-4.8c-3.3,0-5-1.8-5-5V36
			c0-3.2,1.7-5,5-5h4.8V18.4c0-3.1,1.8-4.4,5-5l8.7-1.5c3.3-0.6,5,1.6,5,4.9V31h10.8c3.2,0,5,1.7,5,5v3.7c0,3.2-1.8,5-5,5h-10.8
			v19.5c0,5.3,2.7,7.1,6.1,7.1c1.6-0.1,3.1-0.6,4.5-1.5c2.7-1.7,4-0.4,5,1.6l3,7.1C641.1,81,639.1,82.3,637.7,83.4"/>
		<path class="st1" d="M648.5,58.7c0-16.4,12.7-28.6,30.3-28.6s30.3,12.2,30.3,28.6s-12.7,28.6-30.3,28.6S648.5,75.1,648.5,58.7
			 M690.5,58.7c0-7.2-4.9-12.5-11.7-12.5S667,51.5,667,58.7s5,12.5,11.8,12.5S690.6,65.8,690.5,58.7"/>
		<path class="st2" d="M226.8,208.4c38.2-56.8,23.1-133.8-33.7-172S59.4,13.2,21.2,70S-2,203.8,54.8,242
			c41.8,28.1,96.6,28.1,138.4,0l33.6,17.4l0,0c5,4.6,12.8,4.2,17.4-0.8c4.3-4.7,4.3-11.9,0-16.6L226.8,208.4z M124,238.2
			c-54.7,0-99.1-44.3-99.2-99s44.3-99.1,99-99.2s99.1,44.3,99.2,99c0,0,0,0.1,0,0.1C223,193.9,178.7,238.2,124,238.2"/>
		<path class="st2" d="M86.5,114.7H75c-7.2,0-13-5.8-13-13V90.2c0-7.2,5.8-13,13-13h11.5c7.2,0,13,5.8,13,13v11.4
			C99.4,108.8,93.6,114.6,86.5,114.7 M75,85.9c-2.4,0-4.3,1.9-4.3,4.3v11.4c0,2.4,2,4.3,4.3,4.3h11.5c2.4,0,4.3-1.9,4.3-4.3V90.2
			c0-2.4-1.9-4.3-4.3-4.3L75,85.9z"/>
		<path class="st2" d="M86.5,201.2H75c-7.2,0-13-5.8-13-13v-11.5c0-7.2,5.8-13,13-13l0,0h11.5c7.2,0,13,5.8,13,13l0,0v11.4
			C99.4,195.3,93.6,201.1,86.5,201.2 M75,172.3c-2.4,0-4.3,1.9-4.3,4.3v11.4c0,2.4,1.9,4.4,4.3,4.4c0,0,0,0,0,0h11.5
			c2.4,0,4.3-2,4.3-4.4v-11.4c0-2.4-1.9-4.3-4.3-4.3H75z"/>
		<path class="st2" d="M144.1,114.7h-11.4c-7.2,0-13-5.8-13-13V90.2c0-7.2,5.8-13,13-13h11.4c7.2,0,13,5.8,13,13v11.4
			C157.1,108.8,151.3,114.6,144.1,114.7 M132.6,85.9c-2.4,0-4.3,1.9-4.3,4.3v11.4c0,2.4,1.9,4.3,4.3,4.3h11.4c2.4,0,4.3-1.9,4.4-4.3
			V90.2c0-2.4-2-4.3-4.4-4.3L132.6,85.9z"/>
		<path class="st2" d="M66.3,157.9c-2.4,0-4.3-2-4.3-4.4v-28.8c0.1-2.4,2.2-4.3,4.6-4.1c2.2,0.1,4,1.9,4.1,4.1v28.8
			C70.7,155.9,68.8,157.9,66.3,157.9C66.4,157.9,66.4,157.9,66.3,157.9"/>
		<path class="st2" d="M80.7,157.9c-2.4,0-4.3-2-4.3-4.4v-28.8c0.1-2.4,2.2-4.3,4.6-4.1c2.2,0.1,4,1.9,4.1,4.1v28.8
			C85,155.9,83.1,157.9,80.7,157.9C80.7,157.9,80.7,157.9,80.7,157.9"/>
		<path class="st2" d="M109.5,129.2c-2.4,0-4.3-1.9-4.3-4.3V81.5c-0.1-2.4,1.7-4.4,4.1-4.6c2.4-0.1,4.4,1.7,4.6,4.1
			c0,0.1,0,0.3,0,0.4v43.3C113.8,127.2,111.9,129.2,109.5,129.2C109.5,129.2,109.5,129.2,109.5,129.2"/>
		<path class="st2" d="M172.9,201.2h-11.4c-7.2,0-13-5.8-13-13v-11.5c0-7.2,5.8-13,13-13l0,0h11.4c7.2,0,13,5.8,13,13l0,0v11.4
			C185.9,195.3,180.1,201.1,172.9,201.2 M161.5,172.3c-2.4,0-4.3,1.9-4.3,4.3v11.4c0,2.4,1.9,4.3,4.3,4.4h11.4
			c2.4,0,4.4-1.9,4.4-4.3v0v-11.4c0-2.4-2-4.3-4.4-4.3L161.5,172.3z"/>
		<path class="st2" d="M152.8,157.9H95.2c-2.4,0.1-4.4-1.7-4.6-4.1c-0.1-2.4,1.7-4.4,4.1-4.6c0.1,0,0.3,0,0.4,0h57.6
			c2.4-0.1,4.4,1.7,4.6,4.1s-1.7,4.4-4.1,4.6C153.1,157.9,152.9,157.9,152.8,157.9"/>
		<path class="st2" d="M152.8,143.5H95.2c-2.4,0-4.3-1.9-4.3-4.4l0,0v-14.5c0.1-2.4,2.2-4.3,4.6-4.1c2.2,0.1,4,1.9,4.1,4.1v10.1
			h53.3c2.4-0.1,4.4,1.7,4.6,4.1s-1.7,4.4-4.1,4.6C153.1,143.5,152.9,143.5,152.8,143.5"/>
		<path class="st2" d="M152.8,129H124c-2.4,0.1-4.4-1.7-4.6-4.1c-0.1-2.4,1.7-4.4,4.1-4.6c0.1,0,0.3,0,0.4,0h28.8
			c2.4-0.1,4.4,1.7,4.6,4.1c0.1,2.4-1.7,4.4-4.1,4.6C153.1,129,152.9,129,152.8,129"/>
		<path class="st2" d="M138.3,200.2c-2.4,0-4.3-1.9-4.3-4.3c0,0,0,0,0,0v-23.5h-24.5c-2.4-0.1-4.3-2.2-4.1-4.6
			c0.1-2.2,1.9-4,4.1-4.1h28.8c2.4,0,4.3,1.9,4.3,4.3c0,0,0,0,0,0v27.9C142.7,198.3,140.7,200.2,138.3,200.2L138.3,200.2"/>
		<path class="st2" d="M109.5,200.2c-2.4,0-4.3-1.9-4.3-4.3c0,0,0,0,0,0v-13.5c-0.1-2.4,1.7-4.4,4.1-4.6c2.4-0.1,4.4,1.7,4.6,4.1
			c0,0.1,0,0.3,0,0.4v13.5C113.8,198.3,111.9,200.2,109.5,200.2C109.5,200.2,109.5,200.2,109.5,200.2"/>
		<path class="st2" d="M124,201.2c-2.4,0-4.3-2-4.3-4.4v-14.5c-0.1-2.4,1.7-4.4,4.1-4.6c2.4-0.1,4.4,1.7,4.6,4.1c0,0.1,0,0.3,0,0.4
			v14.5C128.4,199.2,126.4,201.2,124,201.2C124,201.2,124,201.2,124,201.2"/>
		<path class="st2" d="M167.3,129c-2.4,0-4.4-1.9-4.4-4.3c0,0,0,0,0,0V81.5c-0.1-2.4,1.7-4.4,4.1-4.6c2.4-0.1,4.4,1.7,4.6,4.1
			c0,0.1,0,0.3,0,0.4v43.2C171.6,127.1,169.7,129,167.3,129C167.3,129,167.3,129,167.3,129"/>
		<path class="st2" d="M181.6,100.2c-2.4,0-4.3-1.9-4.3-4.3c0,0,0,0,0,0V81.5c-0.1-2.4,1.7-4.4,4.1-4.6c2.4-0.1,4.4,1.7,4.6,4.1
			c0,0.1,0,0.3,0,0.4v14.3C186,98.3,184,100.2,181.6,100.2L181.6,100.2"/>
		<path class="st2" d="M181.6,143.5h-14.3c-2.4,0.1-4.4-1.7-4.6-4.1s1.7-4.4,4.1-4.6c0.1,0,0.3,0,0.4,0h10v-24.5
			c0.1-2.4,2.2-4.3,4.6-4.1c2.2,0.1,4,1.9,4.1,4.1v28.8C186,141.6,184,143.5,181.6,143.5L181.6,143.5"/>
		<path class="st2" d="M181.6,157.9h-14.3c-2.4,0.1-4.4-1.7-4.6-4.1s1.7-4.4,4.1-4.6c0.1,0,0.3,0,0.4,0h14.3
			c2.4-0.1,4.4,1.7,4.6,4.1s-1.7,4.4-4.1,4.6C181.9,157.9,181.7,157.9,181.6,157.9"/>
	</g>
</g>
</svg>
