<svg id="Layer_1" data-name="Layer 1" xmlns="http://www.w3.org/2000/svg" xmlns:xlink="http://www.w3.org/1999/xlink" viewBox="0 0 750.48 337.94"><defs><style>.cls-1{fill:none;}.cls-2{clip-path:url(#clip-path);}.cls-3{fill:#00ba42;}.cls-4{fill:#009f3c;}.cls-5{fill:#00842f;}.cls-6{fill:#00772a;}.cls-7{fill:#006624;}.cls-8{fill:#004718;}.cls-9{fill:#5d9c73;}</style><clipPath id="clip-path" transform="translate(0)"><rect class="cls-1" width="750.48" height="337.94"/></clipPath></defs><title>psp-background</title><g class="cls-2"><path class="cls-3" d="M750,337.94V8.55a12.78,12.78,0,0,0-2,.18,22.43,22.43,0,0,1-2.78.56,12.64,12.64,0,0,1-3.55-.51,58.84,58.84,0,0,0-9.37-1.07,27,27,0,0,0-4.92,0c-2.1.27-4.23,1-6.28.51-1-.27-2-.85-3-1.1-3.44-.8-9.84,3.17-11.32-2a3.49,3.49,0,0,0-.26-.79c-.65-1.07-2.34-.16-3,.92s-1.41,2.53-2.65,2.32c-.77-.13-1.26-.87-1.62-1.55a31.76,31.76,0,0,1-2.47-6,22.64,22.64,0,0,1-5.24,4.92c-2.23,1.33-4.42.62-6.6,1.51-1.5.61-1.91,2.72-2.54,4.07S681,13,680.56,14.22a6.21,6.21,0,0,1-.93,2,1.42,1.42,0,0,1-2,.28,2.35,2.35,0,0,1-.39-1.63c0-.57-.19-1.25-.74-1.42s-1.16.41-1.5.95A18.34,18.34,0,0,0,673.29,18a3.25,3.25,0,0,1-.51,1c-1.22,1.47-1.76-1.06-2.59-1.44-1.25-.58-4,.62-5.27.91a14.71,14.71,0,0,1-9.23-.87,20.22,20.22,0,0,0-4.2-1.76c-4.35-.86-8.2,3.23-9.63,7.41a5.74,5.74,0,0,1-1,2.15c-1.7,1.81-4.71.31-7.17.62-3.82.5-6.12,5.46-10,5.39-1.78,0-3.77-1.16-5.2-.08a4.15,4.15,0,0,0-1.09,1.57c-1.6,3.32-3.42,6.87-6.73,8.49-1.71.83-3.75,1.1-5.15,2.39-1.2,1.09-1.84,2.84-3.33,3.46-1.07.44-2.31.19-3.38.6-2.15.82-2.53,3.65-3.83,5.55-2.8,4.06-8.71,2.29-12.78,3a16.81,16.81,0,0,0-5.57,2.07c-1.29.76-2.71,1.74-4.15,1.34-.7-.2-1.28-.7-2-.95-2.59-1-4.94,1.79-6.35,4.17-1.09-2.11-4.19-1.76-6.41-.93s-5,1.78-6.72.17c-.69-.65-1.23-1.69-2.18-1.65a2.29,2.29,0,0,0-1.51,1.06l-5.18,6.49c-1-1-1.93-2-2.9-3a19.8,19.8,0,0,0-5.49,6.67,11.73,11.73,0,0,0-12.42.53c-2,1.42-4.19,3.6-6.45,2.66a9.77,9.77,0,0,0-2-1c-1.36-.21-2.38,1.14-3.21,2.23-3.08,4.12-7.7,6.76-12.29,9.08A172.21,172.21,0,0,1,456.21,100a44.89,44.89,0,0,0-6.06,1.56c-1.53.56-3,1.31-4.48,2A109.21,109.21,0,0,1,433.41,108a43.61,43.61,0,0,1-8.9,2.16c-1.79.18-3.59.14-5.35.48a29,29,0,0,0-6.37,2.44,43.15,43.15,0,0,1-14.24,4.2c-4.89.41-9.86-.31-14.74-.71a86.3,86.3,0,0,0-12.34-.43c-5.32.32-10.75,1.61-15.9.23-3.27-.88-6.56-2.83-9.83-1.91-1,.27-1.89.8-2.89,1.07a11.1,11.1,0,0,1-2.94.24l-27.19-.13c-1.8,0-3.59,0-5.37-.19-3.23-.31-6.39-1.16-9.62-1.5-8.5-.91-17.43,1.68-25.49-1.18a13.78,13.78,0,0,0-3.22-.94,11.3,11.3,0,0,0-2.72.2c-5.72.77-11.52-.1-17.23-1l-14.18-2.16c-7.49-1.14-13.72-3-19.86-7.5-4.3-3.17-10.06-4.42-13.42-8.58a7.74,7.74,0,0,0-1.78-1.91c-1.29-.81-3-.53-4.34-1.29-1.63-.93-2.44-3.34-4.32-3.42-.75,0-1.46.35-2.22.36-2.68,0-3.21-4-5.48-5.45-1.6-1-3.9-.53-5.32-1.78a23.11,23.11,0,0,1-1.73-2.39c-2-2.22-6-1.46-7.91-3.72-1.15-1.36-1.27-3.57-2.83-4.43s-3.44.11-5.05-.46c-2.08-.74-2.68-3.56-4.64-4.59-2.19-1.17-5.24.39-7.24-1.09-1.05-.77-1.44-2.14-2.2-3.2-2.16-3-6.77-3-9.52-5.49a8.86,8.86,0,0,0-1.79-1.51c-1-.48-2.19-.27-3.29-.36-3.21-.27-4.74-3-5.89-5.61-.73-1.67-1.41-3.54-3-4.56-1.09-.69-2.44-.86-3.56-1.51-2.08-1.2-3-3.77-4.88-5.25-3.42-2.65-8.54-.81-12.6-2.33-2.44-.92-4.4-3-7-3.5-3.63-.65-7.47,2.19-10.9.82-2.08-.84-3.86-3.16-6-2.55-1.21.35-2,1.52-2.93,2.31-3.6,2.94-9.2.19-13.55,1.8-1.92.72-3.67,2.29-5.7,2-.87-.11-1.66-.55-2.52-.73-3.25-.7-6.32,2.31-9.63,2C42.15,34.93,40.65,34,39,34a10,10,0,0,0-4.46,1.48A37.92,37.92,0,0,1,17.3,39.3a5.27,5.27,0,0,0-3,.48c-1.29.82-1.7,2.74-3.14,3.25a7.14,7.14,0,0,1-2.17.1c-2.28.06-4.14,1.74-6,3.07A23.18,23.18,0,0,1,0,48v289.9Z" transform="translate(0)"/><path class="cls-4" d="M750,337.94V55.19a7.89,7.89,0,0,0-1.72,1.39l-6.58-6.65c-1.64,6-14.84-.7-15.85,5.42L719.21,54c.14,2.32-3.12,3.19-5.36,2.57s-4.63-1.91-6.73-.93c-1.19.56-2,1.77-3.31,2-2.76.61-5.66-3.37-7.88-1.63-1.07.84-1,2.49-1.77,3.61-2.92,4.35-9.73-4.21-14.37-1.78-1.69.89-2.72,3.18-4.63,3.15-1.62,0-2.63-1.74-4-2.53-5.33-3-11.75,7.91-16.58,4.16.8,2.39-1.2,4.83-3.36,6.14s-4.72,2.15-6.24,4.17c-.84,1.12-1.27,2.5-2.1,3.63-3.35,4.56-10.44,2.7-15.6.4,1,2.41-2.5,4.35-5.09,3.94s-5.34-1.75-7.67-.57c-1.35.68-2.23,2.09-3.59,2.74s-3.58-.38-3-1.79A6.72,6.72,0,0,0,604,86a10,10,0,0,0-7.36-3c1.15,1.54-.94,3.57-2.84,3.82s-4.09-.17-5.57,1.07-1.89,3.82-3.78,4.06c-1.51.19-2.7-1.39-4.21-1.53-4.08-.38-2.4,7.44-5.77,9.77-3,2-6.86-1.85-10.39-1.15-4.11.81-6.48,7.5-10.36,5.94-2-.79-3-3.6-5.15-3.45-2.82.19-2.6,4.91-5,6.33-2.59,1.53-5.94-1.78-8.74-.68-1.32.51-2.1,1.86-3.3,2.6-2.47,1.52-5.59,0-8.39-.73s-6.87.18-6.79,3.08a7.73,7.73,0,0,1-5.42-2.9l-4.16,3.47c.24,2.11,1.5,2.8,1.74,4.91,1.5,1.74-1.87,4.53-4.16,4.37s-4.07-2-5.72-3.56-3.75-3.18-6-2.77A8.9,8.9,0,0,1,481.8,121c.76,2.87-2.18,5.64-5.13,5.88s-5.76-1.21-8.37-2.64c-1.43,3.07-4.12,6.71-7.31,5.58-2.77-1-3.88-5.27-6.82-5.2-2.62.07-3.67,3.54-6,4.78-5.06,2.71-11.41-6.62-15.92-3.07-1.42,1.11-1.83,3.1-3.1,4.38-2.67,2.67-7.11.91-10.71-.25s-9.12-.06-8.8,3.71l-11.17.21c-.12,3.34-3.22,6.06-6.53,6.49s-6.63-1-9.18-3.17c-1.66-1.4-3.1-3.1-5-4.09s-4.6-1-5.95.67c-.61.75-.88,1.76-1.61,2.4-1.74,1.49-4.29-.1-6.31-1.17s-5.63-.51-5.18,1.73c-2.42-3.06-8.38-1.4-8.85,2.47a9.94,9.94,0,0,0-12.32-1.53c.93-2.53-3.23-3.85-5.69-2.75s-5.17,3.1-7.53,1.81c-1.16-.64-1.83-1.93-2.95-2.62-2.49-1.53-5.71.62-7.2,3.12s-2.28,5.56-4.53,7.42-6.76,1.07-6.73-1.85c-2.76.73-3,4.45-4.3,7a7.81,7.81,0,0,1-10.71,2.86,8.24,8.24,0,0,1-2.39-11c-1.64-2.4-5.36.25-6.41,3s-2.52,6.34-5.41,5.94c-3.3-.47-3.12-5.29-2-8.44-.92,2.52-3.24,4.69-5.91,4.65s-5.12-3-4-5.46a23.94,23.94,0,0,1-9.52,6.44c2-1.92.7-5.56-1.7-6.89s-5.35-1.05-8.08-.74l-14.64,1.71a8.71,8.71,0,0,0-8.7-7.08,9.3,9.3,0,0,1-3.49,0c-1.11-.37-1.94-1.85-1.17-2.73,1.85-2.11-2.52-7.71-5.23-8.43s-5.56.11-8.36.09-6.09-1.54-6.29-4.33c-.09-1.18.4-2.37.14-3.51-.71-3.11-5.51-2.55-7.88-.42s-4.47,5.26-7.65,5.25a11.38,11.38,0,0,1-1.61-6.34A32.55,32.55,0,0,0,168,114a18.18,18.18,0,0,0-.75-6.8,24.84,24.84,0,0,0-9.42,1.18c.69-3.1,0-6.8-2.72-8.51s-7.15.11-7,3.28c-.94-5.62-8.93-8.5-13.23-4.77a20.08,20.08,0,0,1-1.07-9.22,24.74,24.74,0,0,0-8.22.85c1.85-3.26-1.23-7.58-4.92-8.27s-7.37,1.09-10.54,3.09-6.31,4.35-10,5c.94-3-2-6.19-5.13-6.72s-6.29.73-9.23,2a6.73,6.73,0,0,0-11.47-7A71.32,71.32,0,0,0,63.07,66.29c-2.36-2-6-3.76-8.23-1.62-1.1,1.07-1.49,2.92-2.92,3.48-2.34.92-3.94-2.32-5.82-4-3.26-2.92-8.43-1-12.13,1.33s-8.11,5.09-12.15,3.38c-2.94-1.25-4.45-4.43-6.47-6.9s-5.84-4.38-8.27-2.31c-2.84,2.41-1.44,8.35-5,9.51A7.63,7.63,0,0,0,0,66.53V337.94Z" transform="translate(0)"/><path class="cls-5" d="M750,337.94V142.05q-2.38-1.67-4.84-3.14c-4.58-2.74-8.52-4.77-12.46-8.59-3.52-3.4-7-7.51-12.09-8.3-5.57-.86-11.89,2.57-16.56-.57-2.27-1.53-3.64-4.41-6.27-5.16-4.69-1.36-9.06,5-13.74,3.64-1.55-.46-2.74-1.71-4.24-2.32-3.8-1.53-8.07,1.48-12.12.82-1.73-.27-3.35-1.21-5.1-1.13-3.3.16-5.36,3.73-8.44,4.93-2,.79-4.33.47-6.52.35a33.51,33.51,0,0,0-22.66,7.3c-1.89,1.52-3.68,3.29-6,4.08-2.75.95-6,.38-8.46,1.86-3.78,2.25-5,8.61-9.41,8.63-2.16,0-4.31-1.72-6.29-.88s-2.27,3.59-3.93,4.93c-2.82,2.26-6.73-.8-10.31-1.29-4.37-.59-8.66,3.8-8,8.15-5.46-2.83-10.65,4.81-16.71,5.82-4.94.82-11.19-2.58-14.38,1.28-.81,1-1.22,2.3-2.25,3-2.38,1.71-5.43-.86-8.3-1.42-3.32-.65-6.45,1.51-9.67,2.52s-7.93-.24-7.87-3.62c-.92,2.4-4.37,2.46-6.69,1.38s-4.46-2.91-7-2.93c-1.67,0-3.22.77-4.8,1.32-9.6,3.42-16-1.54-22.94-7.32-4.63-3.86-11.15-5.84-17.07-6.58-2.13-.27-4.57-.51-5.84-2.25-.77-1-.95-2.5-1.9-3.4-2.45-2.35-7,1.13-9.81-.73-1.4-.92-1.86-2.83-3.25-3.76-2-1.34-4.68,0-7.1.16a14,14,0,0,1-4.1-.67,101.79,101.79,0,0,0-15.47-2.79c-2.78-.27-5.67-.42-8.26.6s-4.81,3.5-4.65,6.29a52.88,52.88,0,0,1-14.17,10c-7.82,3.77-16.62,5.63-23.69,10.67-3.71,2.64-7.5,6.31-12,5.7-1.46-.2-2.91-.86-4.35-.57-2.56.52-3.71,3.63-6,4.83a9.07,9.07,0,0,1-4.69.56l-31.47-1.8c-6.28-.36-13.08-.93-17.79-5.11-1.86-1.65-3.91-4-6.29-3.28-1,.29-1.77,1.09-2.75,1.39-3.63,1.13-5.77-4.5-9.44-5.53-2.5-.71-5,.9-7.41,1.83s-6,.59-6.56-1.94c-6.84,4.2-15.45,8.48-22.43,4.53a15.18,15.18,0,0,0-3-1.62,12.92,12.92,0,0,0-4-.16,27.19,27.19,0,0,1-7.16-1,91.62,91.62,0,0,1-16.09-5.55c-5.07-2.3-10-2.85-15-4.52-4.92-1.62-8.57-5.68-14-6.36-1.25-.16-2.64-.23-3.55-1.11-1.25-1.2-1-3.41-2.31-4.59-2.53-2.33-7.14,1.94-9.83-.19a14.55,14.55,0,0,1-1.78-2.39,8,8,0,0,0-3.63-2.1c-4.55-1.63-9.33-3.3-14.1-2.55a12.52,12.52,0,0,1-3.93.36c-2.47-.42-4.16-2.85-6.58-3.49-2-.53-4.08.25-6.14.23-5.18-.08-9.76-5.22-14.77-3.88-1.35.36-2.61,1.19-4,1.14a7.16,7.16,0,0,1-2.87-1A36.21,36.21,0,0,0,69,122.07c-1.8.41-3.69,1-5.44.39-1.29-.43-2.5-1.45-3.84-1.19-2.14.43-3.3,3.91-5.36,3.18-1.22-.44-1.43-2.08-2.32-3-2.91-3.1-8.36,3.51-11.9,1.15-1.56-1-2.23-3.64-4.1-3.55-2.55.13-1.86,4.49-3.82,6.13a5,5,0,0,1-2.87.81l-11.22.77a7.26,7.26,0,0,0-4,1.08c-1.92,1.47-2.11,4.65-4.27,5.75-1.17.59-2.6.37-3.82.85-3.29,1.28-2.88,5.92-3.42,9.4A10.76,10.76,0,0,1,0,149.3V337.94Z" transform="translate(0)"/><path class="cls-6" d="M750,337.94V148.65c0-3.45,1.16-9.92-.13-13.07-3.44-8.36-17.36-4.25-21.24,2.9l-28.71,6.22c-4.8,1-10.7,3.36-10.75,8.26l-30.88,7.5c.86,2.49-2.27,4.56-4.89,4.72s-5.55-.44-7.67,1.12c-1.57,1.16-2.21,3.19-3.51,4.63-2.36,2.62-6.3,2.84-9.65,3.92s-6.8,4.5-5.25,7.66c-12.81-1.68-23.64,9.76-36.38,11.86-2.13.34-4.45.39-6.3-.72s-2.91-3.73-1.72-5.53c-5.16-2.51-11.57,2-16.94-.06-2.34-.89-4.08-2.9-6.32-4s-5.64-.88-6.44,1.5c-.74-6.26-9.45-7-15.67-6.06L520,182.21c-2.16.34-4.43.74-6.07,2.17s-2.21,4.3-.58,5.75l-11.8,1c1.38,3.92-3.79,6.79-7.88,7.52s-9.41,2.55-9.11,6.69c-5.33-2.76-12,0-16.3,4.2a28.73,28.73,0,0,0-5.29,7,31.08,31.08,0,0,1-2.81,4.93c-4.07,5.09-13.29,4.43-16.6-1.19-4.7,5.92-13.8,4.91-21.2,3.33l-13.77-2.93c-2.34-.5-5-1.23-6-3.4-.7-1.47-.49-3.36-1.57-4.58-1.84-2.08-5.14-.37-7.72.68-8.06,3.28-14.55-3.29-21.87-4.81s-11.23.15-17.79-5.73q-4.5-4.05-9-8.09a37.51,37.51,0,0,0-6.57-5.09c-8.79-4.9-22.05-.18-24.08,9.68-5.28-1.1-10.8-2.2-16-.83-2.64.69-5.12,2-7.83,2.39s-5.9-.48-7.06-3c-.89-1.9-.34-4.17-.91-6.19-1.1-3.92-6.15-5.54-10-4.36s-6.85,4.29-9.61,7.27A19.44,19.44,0,0,0,240.38,191c-.42-5.62-6.87-9.91-12.21-8.11-4.18,1.41-8.43,5.75-12.15,3.38-1.55-1-2.36-2.93-4-3.68-3.42-1.52-7,3-10.68,2.19-3-.7-4.05-4.54-6.63-6.23-3-2-7-.48-10.56.18-5.39,1-7.73-2.73-10.47-6-1.92,2.87-8.43,3.66-8.45-1.17-3.46,3.43-10.58.57-10.7-4.3-2.58,2.71-8.09.76-8.4-3a11.2,11.2,0,0,1-8.56,2.87c1.09-1.35.07-3.52-1.51-4.23s-3.4-.39-5.1-.06l-14.21,2.75c-3,.58-6.7.89-8.46-1.58-1.65-2.31-1.16-6.48-3.91-7.12-2-.46-3.79,1.7-5.85,1.63-3.18-.1-4-4.88-6.86-6.2-2.72-1.23-6.11,1.11-8.81-.18-2.12-1-2.87-3.83-5-4.87-1.81-.91-4-.18-6-.17-5.11,0-9.45-5.49-8.21-10.44-5.53,2.11-12.51-1.47-14-7.2-3.43,2.62-9.31.31-10-3.94a11.34,11.34,0,0,0-.51-2.81c-1.12-2.5-4.68-2.28-7.35-1.66l-2.07-7c-3.66,2.17-8.85-2.77-6.86-6.53-2.14-1-4.21,1.36-6.25,2.56s-5.76-1.22-3.82-2.59a10.29,10.29,0,0,0-8.88,5.53A5.45,5.45,0,0,0,0,109.53V337.94Z" transform="translate(0)"/><path class="cls-6" d="M290.7,185.69a1.39,1.39,0,0,1,.13.71,3.7,3.7,0,0,0,1.52,2.81,2.6,2.6,0,0,1-1.46-.7,1,1,0,0,0,.49.94l-.52,0,1.51,1.76a2,2,0,0,1-1.17-.48,4.44,4.44,0,0,0,1.86,4c-.48.33-1.11-.13-1.52-.55a.8.8,0,0,0,.09.8l-.72-.23a11.07,11.07,0,0,0,1.74,2.74l-1.46-.37a3.46,3.46,0,0,0,1.32,2.39.72.72,0,0,0-.06,1.18,4.34,4.34,0,0,1,.43.23c.31.28.14.78-.06,1.15-.33-.05-.59.33-.55.66a1.76,1.76,0,0,0,.48.86l1.5,1.71-1.1-.21a4,4,0,0,0,1.06,1.47,1,1,0,0,1-.91-.07,16.72,16.72,0,0,1,1.28,1.87,2.48,2.48,0,0,1-1.51-.45c.13.53.27,1.06.4,1.59a7.16,7.16,0,0,0-3.38-.92,3,3,0,0,1-1.58-.25c-.21-.13-.39-.32-.63-.32a.94.94,0,0,0-.52.29,4.61,4.61,0,0,1-3,1.11,7,7,0,0,0,1.69-1.87l-.73-.05c-.09-.4.37-.67.74-.83s.79-.53.6-.89l-1,.13,1.54-1.4a1.63,1.63,0,0,1,.13-1.61l-1.41.31,1.59-1.13-.61-.19a8.09,8.09,0,0,0,2-5l-2,1.18,1.52-1.34-.89-.1c-.08-.27.15-.52.38-.67a1.56,1.56,0,0,0,.63-.5c.14-.24,0-.63-.29-.58a12.39,12.39,0,0,0,1-2.56,3.11,3.11,0,0,0-1.71.45l1.34-1.05-1.09-.22a2.23,2.23,0,0,0,1.59-1.74l-.91-.13a4.42,4.42,0,0,1,1-1.07,2.54,2.54,0,0,1-.95-.12l.75-.83a3,3,0,0,1-1-.08c.28-.38.8-.48,1.23-.68a1.2,1.2,0,0,0,.7-1.26.38.38,0,0,1,.51.15" transform="translate(0)"/><path class="cls-6" d="M491.16,185.69a1.39,1.39,0,0,1,.13.71,3.7,3.7,0,0,0,1.52,2.81,2.6,2.6,0,0,1-1.46-.7,1,1,0,0,0,.49.94l-.52,0,1.51,1.76a2,2,0,0,1-1.17-.48,4.44,4.44,0,0,0,1.86,4c-.48.33-1.11-.13-1.52-.55a.8.8,0,0,0,.09.8l-.72-.23a11.07,11.07,0,0,0,1.74,2.74l-1.46-.37a3.46,3.46,0,0,0,1.32,2.39.72.72,0,0,0-.06,1.18,4.34,4.34,0,0,1,.43.23c.31.28.14.78-.06,1.15-.33-.05-.59.33-.55.66a1.7,1.7,0,0,0,.49.86l1.49,1.71-1.1-.21a4,4,0,0,0,1.06,1.47,1,1,0,0,1-.91-.07,18.18,18.18,0,0,1,1.28,1.87,2.48,2.48,0,0,1-1.51-.45c.13.53.27,1.06.4,1.59a7.16,7.16,0,0,0-3.38-.92,3,3,0,0,1-1.58-.25c-.21-.13-.39-.32-.63-.32a.94.94,0,0,0-.52.29,4.61,4.61,0,0,1-3,1.11,7,7,0,0,0,1.69-1.87l-.73-.05c-.09-.4.37-.67.74-.83s.79-.53.6-.89l-1,.13,1.54-1.4a1.63,1.63,0,0,1,.13-1.61l-1.41.31,1.59-1.13-.61-.19a8.09,8.09,0,0,0,2.05-5l-2,1.18,1.52-1.34-.89-.1c-.08-.27.15-.52.38-.67a1.56,1.56,0,0,0,.63-.5c.14-.24,0-.63-.29-.58a12.39,12.39,0,0,0,1-2.56,3.11,3.11,0,0,0-1.71.45l1.34-1.05-1.1-.22a2.23,2.23,0,0,0,1.6-1.74l-.91-.13a4.42,4.42,0,0,1,1-1.07,2.54,2.54,0,0,1-.95-.12l.75-.83a3,3,0,0,1-1-.08c.28-.38.8-.48,1.23-.68a1.2,1.2,0,0,0,.7-1.26.38.38,0,0,1,.51.15" transform="translate(0)"/><path class="cls-6" d="M427.81,215.34a1.43,1.43,0,0,1,.13.71,3.74,3.74,0,0,0,1.51,2.82,2.61,2.61,0,0,1-1.45-.7,1,1,0,0,0,.49.94l-.52,0,1.51,1.77a2.2,2.2,0,0,1-1.18-.48,4.42,4.42,0,0,0,1.87,4c-.49.33-1.11-.12-1.52-.55a.82.82,0,0,0,.08.8l-.71-.22a11,11,0,0,0,1.74,2.73l-1.46-.36a3.45,3.45,0,0,0,1.32,2.39.72.72,0,0,0-.06,1.18,2.22,2.22,0,0,1,.43.23c.31.27.14.78-.06,1.14-.33,0-.59.34-.55.67a1.59,1.59,0,0,0,.48.85l1.5,1.72-1.1-.21a4.08,4.08,0,0,0,1.06,1.47,1.08,1.08,0,0,1-.91-.08,20.07,20.07,0,0,1,1.28,1.88,2.62,2.62,0,0,1-1.51-.45c.13.53.26,1.06.4,1.59a7.16,7.16,0,0,0-3.38-.92,3,3,0,0,1-1.59-.26c-.2-.12-.39-.32-.62-.31a.85.85,0,0,0-.52.29,4.68,4.68,0,0,1-3,1.11,7.22,7.22,0,0,0,1.69-1.88l-.73,0c-.09-.39.37-.66.73-.83s.79-.53.6-.88l-1,.12,1.54-1.4a1.63,1.63,0,0,1,.13-1.61l-1.41.31,1.59-1.13-.61-.18A8.15,8.15,0,0,0,426,226.5l-2,1.18,1.52-1.34-.9-.11c-.07-.26.15-.51.38-.66a1.61,1.61,0,0,0,.64-.5c.14-.24,0-.64-.29-.59a12.39,12.39,0,0,0,1-2.56,3.11,3.11,0,0,0-1.71.45l1.34-1.05-1.1-.21a2.23,2.23,0,0,0,1.6-1.74l-.92-.13a4.51,4.51,0,0,1,1-1.08,2.62,2.62,0,0,1-1-.12c.26-.27.51-.55.76-.82a3.39,3.39,0,0,1-1.05-.08c.29-.39.81-.49,1.24-.69a1.18,1.18,0,0,0,.7-1.26.39.39,0,0,1,.51.15" transform="translate(0)"/><path class="cls-6" d="M359.25,197.7a1.39,1.39,0,0,1,.13.71,3.73,3.73,0,0,0,1.52,2.81,2.57,2.57,0,0,1-1.45-.7,1,1,0,0,0,.48.94l-.52,0,1.52,1.76a2.06,2.06,0,0,1-1.18-.48,4.43,4.43,0,0,0,1.87,4c-.49.33-1.12-.13-1.53-.55a.82.82,0,0,0,.09.8l-.71-.23a10.52,10.52,0,0,0,1.74,2.74l-1.47-.37a3.47,3.47,0,0,0,1.33,2.39.71.71,0,0,0-.06,1.18c.13.09.3.13.43.23.31.28.13.78-.06,1.15-.33-.05-.59.33-.56.66a1.7,1.7,0,0,0,.49.86l1.5,1.71-1.1-.21a4,4,0,0,0,1.05,1.47,1,1,0,0,1-.9-.07,18.69,18.69,0,0,1,1.28,1.87,2.6,2.6,0,0,1-1.51-.45l.39,1.59a7.13,7.13,0,0,0-3.38-.92,3,3,0,0,1-1.58-.25c-.2-.13-.39-.32-.63-.32a1,1,0,0,0-.52.29,4.6,4.6,0,0,1-3,1.11,7.36,7.36,0,0,0,1.69-1.87l-.74-.05c-.08-.4.37-.67.74-.83s.79-.53.6-.89l-1,.13,1.54-1.4a1.63,1.63,0,0,1,.14-1.61l-1.42.31,1.6-1.13-.61-.19a8.13,8.13,0,0,0,2-5.05l-2,1.18,1.52-1.34-.89-.1c-.07-.27.15-.52.38-.67a1.66,1.66,0,0,0,.64-.5c.13-.24,0-.63-.29-.58a11.82,11.82,0,0,0,1-2.56,3.1,3.1,0,0,0-1.7.45l1.33-1-1.09-.22a2.26,2.26,0,0,0,1.6-1.74l-.92-.13a4.42,4.42,0,0,1,1-1.07,2.56,2.56,0,0,1-.95-.12l.76-.83a3.09,3.09,0,0,1-1.05-.08c.28-.38.8-.48,1.24-.68a1.21,1.21,0,0,0,.7-1.26.37.37,0,0,1,.5.15" transform="translate(0)"/><path class="cls-6" d="M520.91,178.56a1.41,1.41,0,0,1,.13.71,3.7,3.7,0,0,0,1.52,2.81,2.6,2.6,0,0,1-1.46-.7,1,1,0,0,0,.49,1l-.52,0,1.51,1.76a2,2,0,0,1-1.17-.48,4.43,4.43,0,0,0,1.86,4c-.48.33-1.11-.13-1.52-.55a.8.8,0,0,0,.09.8l-.72-.23a11.07,11.07,0,0,0,1.74,2.74L521.4,190a3.48,3.48,0,0,0,1.32,2.4.71.71,0,0,0-.06,1.17,3,3,0,0,1,.43.24c.31.27.14.77-.06,1.14-.33,0-.59.33-.55.66a1.7,1.7,0,0,0,.49.86l1.49,1.72-1.1-.21a4.29,4.29,0,0,0,1.06,1.47,1.08,1.08,0,0,1-.91-.08,16,16,0,0,1,1.28,1.88,2.62,2.62,0,0,1-1.51-.45c.14.53.27,1.06.4,1.58a7.16,7.16,0,0,0-3.38-.92,2.91,2.91,0,0,1-1.58-.25c-.21-.13-.39-.32-.63-.31a.87.87,0,0,0-.52.28,4.61,4.61,0,0,1-3,1.11,7.06,7.06,0,0,0,1.7-1.87l-.74,0c-.09-.39.37-.67.74-.83s.79-.53.6-.89l-1,.13,1.54-1.4a1.6,1.6,0,0,1,.14-1.61l-1.42.31,1.59-1.13-.61-.19a8.07,8.07,0,0,0,2.05-5l-2,1.18,1.52-1.34-.89-.1c-.08-.27.15-.52.38-.66a1.88,1.88,0,0,0,.64-.5c.13-.24,0-.64-.3-.59a11.86,11.86,0,0,0,1-2.56,3.06,3.06,0,0,0-1.7.45l1.33-1.05-1.09-.21a2.26,2.26,0,0,0,1.59-1.75l-.91-.13a4.42,4.42,0,0,1,1-1.07,2.54,2.54,0,0,1-1-.12l.75-.83a3,3,0,0,1-1-.08c.28-.38.8-.48,1.24-.68a1.22,1.22,0,0,0,.7-1.26.37.37,0,0,1,.5.15" transform="translate(0)"/><path class="cls-6" d="M648.71,150.67a1.43,1.43,0,0,1,.13.71,3.77,3.77,0,0,0,1.52,2.82,2.65,2.65,0,0,1-1.45-.71,1,1,0,0,0,.48.95l-.52,0,1.52,1.76a2.06,2.06,0,0,1-1.18-.48,4.44,4.44,0,0,0,1.87,4c-.49.33-1.12-.12-1.53-.55a.82.82,0,0,0,.09.8l-.71-.23a10.35,10.35,0,0,0,1.74,2.74l-1.47-.37a3.49,3.49,0,0,0,1.33,2.4.71.71,0,0,0-.06,1.18,2.22,2.22,0,0,1,.43.23c.31.27.13.77-.06,1.14-.33-.05-.59.33-.56.66a1.66,1.66,0,0,0,.49.86l1.5,1.72-1.1-.21a4,4,0,0,0,1.06,1.47,1.08,1.08,0,0,1-.91-.08,20.07,20.07,0,0,1,1.28,1.88,2.6,2.6,0,0,1-1.51-.45l.39,1.59a7,7,0,0,0-3.37-.93,2.93,2.93,0,0,1-1.59-.25c-.2-.13-.39-.32-.63-.31a.9.9,0,0,0-.52.28,4.6,4.6,0,0,1-3,1.11,7,7,0,0,0,1.69-1.87l-.74-.05c-.08-.39.37-.66.74-.83s.79-.53.6-.89l-1,.13,1.54-1.4a1.63,1.63,0,0,1,.14-1.61l-1.42.31,1.6-1.13-.61-.19a8.11,8.11,0,0,0,2-5.05l-2,1.18,1.52-1.33-.89-.11c-.07-.26.15-.52.38-.66a1.88,1.88,0,0,0,.64-.5c.13-.24,0-.64-.29-.59a11.82,11.82,0,0,0,1-2.56,3.1,3.1,0,0,0-1.7.45l1.33-1-1.09-.21a2.27,2.27,0,0,0,1.6-1.74l-.92-.13a4.29,4.29,0,0,1,1-1.08,2.56,2.56,0,0,1-1-.12l.76-.83a3.09,3.09,0,0,1-1.05-.07c.28-.39.8-.49,1.24-.69a1.19,1.19,0,0,0,.7-1.26.37.37,0,0,1,.5.15" transform="translate(0)"/><path class="cls-6" d="M295.56,193.85a1.43,1.43,0,0,1,.13.71,3.74,3.74,0,0,0,1.52,2.82,2.68,2.68,0,0,1-1.46-.71,1,1,0,0,0,.49,1l-.52,0,1.51,1.76a2,2,0,0,1-1.17-.48,4.43,4.43,0,0,0,1.86,4c-.48.33-1.11-.12-1.52-.55a.79.79,0,0,0,.09.8l-.72-.23a10.89,10.89,0,0,0,1.74,2.74l-1.46-.37a3.48,3.48,0,0,0,1.32,2.4.71.71,0,0,0-.06,1.17,3,3,0,0,1,.43.24c.31.27.14.77-.06,1.14-.33-.05-.59.33-.55.66a1.66,1.66,0,0,0,.49.86l1.49,1.72-1.1-.21a4.16,4.16,0,0,0,1.06,1.47,1.08,1.08,0,0,1-.91-.08,16.84,16.84,0,0,1,1.28,1.88,2.62,2.62,0,0,1-1.51-.45c.13.53.27,1.06.4,1.59a7.06,7.06,0,0,0-3.38-.93,2.91,2.91,0,0,1-1.58-.25c-.21-.13-.39-.32-.63-.31a.87.87,0,0,0-.52.28,4.61,4.61,0,0,1-3,1.11,7.06,7.06,0,0,0,1.7-1.87l-.74-.05c-.09-.39.37-.67.74-.83s.79-.53.6-.89l-1,.13,1.54-1.4a1.6,1.6,0,0,1,.14-1.61l-1.42.31,1.59-1.13-.61-.19a8.07,8.07,0,0,0,2.05-5.05l-2,1.18,1.52-1.33-.89-.11c-.08-.26.15-.52.38-.66a1.75,1.75,0,0,0,.63-.5c.14-.24,0-.64-.29-.59a12.39,12.39,0,0,0,1-2.56,3.11,3.11,0,0,0-1.71.45l1.34-1-1.09-.21a2.24,2.24,0,0,0,1.59-1.74l-.91-.13a4.29,4.29,0,0,1,1-1.08,2.54,2.54,0,0,1-.95-.12l.75-.83a3.3,3.3,0,0,1-1-.07c.28-.39.8-.49,1.24-.69a1.22,1.22,0,0,0,.7-1.26.37.37,0,0,1,.5.15" transform="translate(0)"/><path class="cls-6" d="M174.32,163.32a1.45,1.45,0,0,1,.14.72,3.72,3.72,0,0,0,1.51,2.81,2.57,2.57,0,0,1-1.45-.7,1,1,0,0,0,.48.94l-.51,0,1.51,1.77a2.06,2.06,0,0,1-1.18-.48,4.45,4.45,0,0,0,1.87,4c-.49.33-1.12-.13-1.53-.55a.82.82,0,0,0,.09.8l-.71-.23a11.07,11.07,0,0,0,1.74,2.74l-1.46-.37a3.42,3.42,0,0,0,1.32,2.39.71.71,0,0,0-.06,1.18,2.93,2.93,0,0,1,.43.23c.31.28.13.78-.06,1.14-.33,0-.59.34-.55.67a1.62,1.62,0,0,0,.48.86l1.5,1.71-1.1-.21a4.08,4.08,0,0,0,1.06,1.47,1.07,1.07,0,0,1-.91-.07,18.69,18.69,0,0,1,1.28,1.87,2.6,2.6,0,0,1-1.51-.45l.39,1.59a7.09,7.09,0,0,0-3.37-.92,3,3,0,0,1-1.59-.25c-.2-.13-.39-.32-.63-.32a.91.91,0,0,0-.51.29,4.62,4.62,0,0,1-3,1.11,7.34,7.34,0,0,0,1.69-1.87l-.74-.05c-.08-.4.37-.67.74-.83s.79-.53.6-.89l-1,.13c.51-.47,1-.94,1.54-1.4a1.6,1.6,0,0,1,.13-1.61l-1.42.31,1.6-1.13-.61-.19a8.15,8.15,0,0,0,2.05-5.05l-2,1.18,1.52-1.34-.89-.1c-.07-.27.15-.52.38-.67a1.59,1.59,0,0,0,.64-.5c.13-.24,0-.63-.29-.58a12.11,12.11,0,0,0,1-2.57,3.2,3.2,0,0,0-1.7.46l1.33-1.06-1.09-.21a2.23,2.23,0,0,0,1.6-1.74l-.92-.13a4.28,4.28,0,0,1,1-1.07,2.82,2.82,0,0,1-1-.12l.76-.83a3.09,3.09,0,0,1-1.05-.08c.28-.39.81-.48,1.24-.68a1.2,1.2,0,0,0,.7-1.26.37.37,0,0,1,.5.14" transform="translate(0)"/><path class="cls-6" d="M169.66,164.58a1.45,1.45,0,0,1,.14.72,3.72,3.72,0,0,0,1.51,2.81,2.57,2.57,0,0,1-1.45-.7,1,1,0,0,0,.48.94l-.51,0,1.51,1.77a2.06,2.06,0,0,1-1.18-.48,4.45,4.45,0,0,0,1.87,4c-.49.33-1.12-.13-1.53-.55a.82.82,0,0,0,.09.8l-.71-.23a11.07,11.07,0,0,0,1.74,2.74l-1.46-.37a3.42,3.42,0,0,0,1.32,2.39.71.71,0,0,0-.06,1.18,2.93,2.93,0,0,1,.43.23c.31.28.13.78-.06,1.14-.33,0-.59.34-.55.67a1.62,1.62,0,0,0,.48.86l1.5,1.71-1.1-.21a4.08,4.08,0,0,0,1.06,1.47,1,1,0,0,1-.91-.07,18.69,18.69,0,0,1,1.28,1.87,2.6,2.6,0,0,1-1.51-.45l.39,1.59a7.09,7.09,0,0,0-3.37-.92,3,3,0,0,1-1.59-.25c-.2-.13-.39-.32-.63-.32a.91.91,0,0,0-.51.29,4.62,4.62,0,0,1-3,1.11,7.34,7.34,0,0,0,1.69-1.87l-.74,0c-.08-.4.37-.67.74-.83s.79-.53.6-.89l-1,.13c.51-.47,1-.94,1.54-1.4a1.6,1.6,0,0,1,.13-1.61l-1.42.31,1.6-1.13-.61-.19a8.15,8.15,0,0,0,2.05-5l-2,1.18,1.52-1.34-.89-.1c-.07-.27.15-.52.38-.67a1.59,1.59,0,0,0,.64-.5c.13-.24,0-.63-.29-.58a11.9,11.9,0,0,0,1-2.57,3.2,3.2,0,0,0-1.7.46l1.33-1.06-1.09-.21a2.23,2.23,0,0,0,1.6-1.74l-.92-.13a4.28,4.28,0,0,1,1-1.07,2.59,2.59,0,0,1-1-.12l.76-.83a3.09,3.09,0,0,1-1.05-.08c.28-.39.81-.48,1.24-.68a1.2,1.2,0,0,0,.7-1.26.37.37,0,0,1,.5.14" transform="translate(0)"/><path class="cls-6" d="M92.57,145.17a1.43,1.43,0,0,1,.13.71,3.74,3.74,0,0,0,1.52,2.82,2.6,2.6,0,0,1-1.46-.7,1,1,0,0,0,.49.94l-.52,0,1.51,1.76a2,2,0,0,1-1.17-.48,4.42,4.42,0,0,0,1.86,4c-.49.33-1.11-.12-1.52-.55a.79.79,0,0,0,.09.8l-.72-.23A10.89,10.89,0,0,0,94.52,157l-1.46-.36A3.45,3.45,0,0,0,94.38,159a.72.72,0,0,0-.06,1.18,2.22,2.22,0,0,1,.43.23c.31.27.14.78-.06,1.14-.33-.05-.59.34-.55.67a1.66,1.66,0,0,0,.48.85l1.5,1.72-1.1-.21a4.08,4.08,0,0,0,1.06,1.47,1.08,1.08,0,0,1-.91-.08,18.31,18.31,0,0,1,1.28,1.88,2.62,2.62,0,0,1-1.51-.45c.13.53.27,1.06.4,1.59a7.16,7.16,0,0,0-3.38-.92,3,3,0,0,1-1.58-.26c-.21-.12-.39-.32-.63-.31a.81.81,0,0,0-.52.29,4.71,4.71,0,0,1-3,1.11A7,7,0,0,0,87.89,167l-.73-.05c-.09-.39.37-.66.74-.83s.78-.53.6-.88l-1,.12L89,164a1.63,1.63,0,0,1,.13-1.61l-1.41.31,1.59-1.13-.61-.19a8,8,0,0,0,2-5l-2,1.18,1.52-1.34-.9-.11c-.07-.26.15-.52.39-.66a1.65,1.65,0,0,0,.63-.5c.14-.24,0-.64-.29-.59a12.39,12.39,0,0,0,1-2.56,3.11,3.11,0,0,0-1.71.45l1.34-1-1.1-.21a2.23,2.23,0,0,0,1.6-1.74l-.92-.13a4.72,4.72,0,0,1,1-1.08,2.54,2.54,0,0,1-1-.12l.75-.83a3,3,0,0,1-1-.07c.28-.39.8-.49,1.23-.69a1.18,1.18,0,0,0,.7-1.26.38.38,0,0,1,.51.15" transform="translate(0)"/><path class="cls-6" d="M432.45,215.2a1.56,1.56,0,0,1,.14.71,3.73,3.73,0,0,0,1.51,2.82,2.57,2.57,0,0,1-1.45-.7,1,1,0,0,0,.48.94l-.51,0,1.51,1.76a2.06,2.06,0,0,1-1.18-.48,4.43,4.43,0,0,0,1.87,4c-.49.33-1.12-.12-1.53-.55a.82.82,0,0,0,.09.8l-.71-.23a10.61,10.61,0,0,0,1.74,2.74l-1.46-.36a3.45,3.45,0,0,0,1.32,2.39.71.71,0,0,0-.06,1.18,2.22,2.22,0,0,1,.43.23c.31.27.13.78-.06,1.14-.33-.05-.59.34-.56.67a1.67,1.67,0,0,0,.49.85l1.5,1.72-1.1-.21a4,4,0,0,0,1.06,1.47,1.08,1.08,0,0,1-.91-.08,20.07,20.07,0,0,1,1.28,1.88,2.6,2.6,0,0,1-1.51-.45l.39,1.59a7.13,7.13,0,0,0-3.37-.92,3,3,0,0,1-1.59-.26c-.2-.12-.39-.32-.63-.31a.86.86,0,0,0-.52.29,4.71,4.71,0,0,1-3,1.11,7.22,7.22,0,0,0,1.69-1.88L427,237c-.08-.39.37-.66.74-.83s.79-.53.6-.88l-1,.12c.52-.46,1-.93,1.54-1.4a1.63,1.63,0,0,1,.14-1.61l-1.42.31c.54-.37,1.07-.75,1.6-1.13l-.61-.19a8,8,0,0,0,2-5l-2,1.18,1.52-1.34-.89-.11c-.07-.26.15-.52.38-.66s.51-.26.64-.5,0-.64-.29-.59a11.82,11.82,0,0,0,1-2.56,3.1,3.1,0,0,0-1.7.45l1.33-1-1.09-.21a2.26,2.26,0,0,0,1.6-1.74l-.92-.13a4.47,4.47,0,0,1,1-1.08,2.56,2.56,0,0,1-.95-.12l.76-.83A3.09,3.09,0,0,1,430,217c.28-.39.8-.49,1.24-.69a1.18,1.18,0,0,0,.7-1.26.37.37,0,0,1,.5.15" transform="translate(0)"/><path class="cls-7" d="M750,337.94V85.48c-2.46.56-4.9,1.28-7.28,2L737.93,89a8.79,8.79,0,0,0-4.3,2.27,8.73,8.73,0,0,0-1.54,3.66Q729.84,104,727.57,113c-6-.83-11.28,6.79-8.38,12.13-3.49-1.74-7.17-3.53-11.06-3.39s-8,3-8.11,6.86c-5.21-3-12.82,2.14-12,8.08-6.71-1.88-14,5.47-12.15,12.17-5.73-.54-11.3,4.78-11,10.53.08,1.46.46,3,.1,4.38-.9,3.49-5.38,4.34-9,4.52a22.77,22.77,0,0,0,1.22,10.54,16.62,16.62,0,0,1-11.5.6c.17,2.64.33,5.29.5,7.93a17.17,17.17,0,0,1-8.16.83,17.77,17.77,0,0,0,.09,7c-3-1-6.3-1.67-9.16-.39s-4.68,5.14-2.88,7.7c-6-2.33-13.31,4.07-11.8,10.31-3.71,1.76-7.79-1.17-11.67-2.53s-10,1.35-8.17,5.05c-5,.25-7.31-7.38-12.29-7.76-3.07-.23-5.66,2.65-6.23,5.68s.35,6.11,1.27,9.05c-6.38-.82-14.49-.75-17.25,5.06-2.81,2.36-6.94.07-10.15-1.71s-8.55-2.15-9.32,1.44c-.28,1.27.2,2.7-.42,3.83-2.21,4-8.27-4.45-12.22-2.12l-3.37,9.1c-3.15,1.26-6.49-1-9.53-2.5s-7.78-1.67-8.81,1.57a10.55,10.55,0,0,0-.27,2.39,9.5,9.5,0,0,1-17.35,4.52c-1.29-1.92-1.95-4.39-3.86-5.68-4.61-3.1-11.11,3.38-16.07.88-1.73-.86-2.85-2.68-4.62-3.45-2.64-1.14-5.58.38-8.36,1.09s-6.73-.3-6.73-3.17c-4,1.48-4.18,7-6.71,10.4-2.41,3.23-6.71,4.24-10.16,6.3s-6.23,6.9-3.59,9.94c-2.17,2.28-5.89.09-8.26-2s-6.48-3.85-8.19-1.2c-.66,1-.59,2.34-1,3.49-1.21,3.49-5.75,4.05-9.22,5.33s-6.31,6.49-3,8.17c.68,3.77-5.1,6.64-8.66,5.22s-5.22-5.85-4.5-9.61a46.55,46.55,0,0,0-15.07,2.48,9.84,9.84,0,0,1,.43-6A13.66,13.66,0,0,0,359.43,265l.4-7.21c-2.6-2.44-6.79-.12-9.33,2.39s-5.93,5.48-9.18,4l-.9-7.18a50.66,50.66,0,0,0-13.29-.86,27.7,27.7,0,0,1,.7-9.6,21,21,0,0,0-19,5.77c-.72,2.36-1.59,4.93-3.69,6.22s-5.66.11-5.55-2.36c2.49-1.4-.2-5.41-3.05-5.58s-5.82,1.23-8.46.14c-.9-3-2.37-6.61-5.5-7.1-2.45-.38-4.64,1.38-6.92,2.36s-5.78.58-6.13-1.87c-.47-3.28,5.4-5.94,3.46-8.63a13.75,13.75,0,0,0-8.8,3.46l-1.11-6.29-5.9.37a13.21,13.21,0,0,1,1.57-8.42c-4.26-2-9.28.59-12.75,3.77s-6.59,7.16-11.09,8.55-10.68-1.87-9.77-6.49c-.39-3.26-5.7-1.94-7.41.86s-3.24,6.75-6.51,6.64c-2.22-.06-3.93-2.16-6.12-2.39-4-.42-5.76,4.77-6.15,8.73a18.49,18.49,0,0,1-7.13-10.21,11,11,0,0,0-8.88,4.94c-.82,1.26-1.4,2.73-2.56,3.7s-3.23,1.08-4-.24.23-2.74.31-4.16c.17-2.86-3.33-4.79-6.13-4.18s-4.92,2.82-6.86,4.93a9,9,0,0,1-2.33-8.33,30.45,30.45,0,0,0-14.54,1.95l-1.47-8.27c-3.95.6-9.64.88-13.59,1.48l2.14-11.45c-9.53-2.7-24.17-1.87-24.14,8L98.9,213l-11,13.15a255.32,255.32,0,0,1-21.93-41.32c-4.75-1.56-6.63-8.47-3.33-12.22a64.72,64.72,0,0,0-24.31-3.84l2.64-20.25c-7.49.21-13.4-9.07-10-15.76-8.59.87-15.33-10.84-10.26-17.83-6.85,3-15.85-2.26-16.67-9.69L0,106v232Z" transform="translate(0)"/><path class="cls-7" d="M236.21,203a4.31,4.31,0,0,1,.41,2.2,11.52,11.52,0,0,0,4.67,8.68,7.93,7.93,0,0,1-4.47-2.17,3,3,0,0,0,1.49,2.91l-1.6-.09,4.67,5.44a6.37,6.37,0,0,1-3.63-1.48,13.67,13.67,0,0,0,5.75,12.42c-1.5,1-3.43-.39-4.7-1.7a2.51,2.51,0,0,0,.27,2.47l-2.2-.7a33.31,33.31,0,0,0,5.37,8.44l-4.51-1.13c.66,2.82,1.55,6,4.07,7.38a2.19,2.19,0,0,0-.18,3.63A8.9,8.9,0,0,1,243,250c1,.84.41,2.4-.18,3.52-1-.14-1.82,1-1.71,2.05a5.09,5.09,0,0,0,1.49,2.64l4.62,5.29-3.39-.64a12.54,12.54,0,0,0,3.26,4.53,3.32,3.32,0,0,1-2.8-.24,55.65,55.65,0,0,1,3.94,5.79,8,8,0,0,1-4.64-1.39c.4,1.63.8,3.27,1.21,4.9a21.87,21.87,0,0,0-10.41-2.84c-1.67,0-3.47.11-4.88-.78-.63-.4-1.21-1-1.94-1a2.76,2.76,0,0,0-1.6.88,14.33,14.33,0,0,1-9.33,3.43,22.3,22.3,0,0,0,5.22-5.78l-2.27-.16c-.27-1.21,1.14-2,2.27-2.55s2.43-1.64,1.85-2.74l-3.13.39,4.74-4.31a5,5,0,0,1,.42-5l-4.36,1q2.44-1.75,4.91-3.49l-1.88-.58a25.05,25.05,0,0,0,6.31-15.56l-6.2,3.63,4.68-4.12-2.75-.33c-.22-.82.46-1.6,1.18-2.05a5.09,5.09,0,0,0,2-1.54c.41-.73-.06-2-.89-1.81a36.92,36.92,0,0,0,3.18-7.89,9.54,9.54,0,0,0-5.25,1.39l4.12-3.24-3.37-.66a6.9,6.9,0,0,0,4.92-5.36l-2.83-.4a13.56,13.56,0,0,1,3.1-3.31,7.92,7.92,0,0,1-2.94-.38l2.34-2.55a9.75,9.75,0,0,1-3.23-.24c.86-1.19,2.47-1.49,3.81-2.11a3.69,3.69,0,0,0,2.16-3.89,1.18,1.18,0,0,1,1.55.46" transform="translate(0)"/><path class="cls-7" d="M703.08,100.32a4.41,4.41,0,0,1,.4,2.2,11.56,11.56,0,0,0,4.68,8.68,8.09,8.09,0,0,1-4.48-2.17,3.06,3.06,0,0,0,1.49,2.91l-1.59-.09q2.32,2.73,4.66,5.44a6.42,6.42,0,0,1-3.63-1.48,13.67,13.67,0,0,0,5.76,12.42c-1.51,1-3.44-.39-4.7-1.7a2.49,2.49,0,0,0,.27,2.47l-2.2-.7a33.45,33.45,0,0,0,5.36,8.44l-4.5-1.13c.66,2.82,1.54,5.95,4.07,7.37a2.2,2.2,0,0,0-.18,3.64,9.31,9.31,0,0,1,1.32.71c1,.84.42,2.4-.18,3.52-1-.14-1.82,1-1.71,2.05a5.08,5.08,0,0,0,1.5,2.64l4.61,5.29-3.38-.64a12.43,12.43,0,0,0,3.26,4.53,3.34,3.34,0,0,1-2.81-.24,54.22,54.22,0,0,1,3.95,5.79,8,8,0,0,1-4.65-1.39c.4,1.63.81,3.27,1.21,4.9a21.84,21.84,0,0,0-10.41-2.84c-1.67,0-3.47.11-4.88-.78-.62-.4-1.2-1-1.94-1a2.76,2.76,0,0,0-1.6.88,14.29,14.29,0,0,1-9.33,3.43,22.3,22.3,0,0,0,5.22-5.78l-2.27-.16c-.26-1.21,1.14-2.05,2.28-2.55s2.43-1.64,1.84-2.74l-3.13.39,4.75-4.31a5,5,0,0,1,.41-5l-4.36,1q2.46-1.74,4.91-3.49l-1.88-.57a24.94,24.94,0,0,0,6.31-15.56l-6.2,3.63,4.69-4.12-2.75-.33c-.23-.82.46-1.6,1.17-2.05a5.2,5.2,0,0,0,2-1.54c.41-.73-.07-2-.9-1.81a37.48,37.48,0,0,0,3.19-7.89,9.49,9.49,0,0,0-5.25,1.39l4.11-3.24-3.37-.66a6.9,6.9,0,0,0,4.92-5.36l-2.82-.4a13.33,13.33,0,0,1,3.09-3.31,8.16,8.16,0,0,1-2.94-.38l2.34-2.55a9.75,9.75,0,0,1-3.23-.24c.87-1.19,2.48-1.49,3.82-2.11a3.67,3.67,0,0,0,2.15-3.89,1.19,1.19,0,0,1,1.56.46" transform="translate(0)"/><path class="cls-7" d="M465.75,221.14a4.53,4.53,0,0,1,.41,2.2,11.5,11.5,0,0,0,4.67,8.68,8,8,0,0,1-4.48-2.16,3,3,0,0,0,1.5,2.9l-1.6-.09c1.55,1.82,3.11,3.63,4.66,5.44a6.3,6.3,0,0,1-3.62-1.48A13.64,13.64,0,0,0,473,249.05c-1.5,1-3.44-.38-4.7-1.7a2.51,2.51,0,0,0,.27,2.48l-2.2-.71a33.56,33.56,0,0,0,5.36,8.44l-4.5-1.13c.66,2.82,1.55,6,4.07,7.38a2.19,2.19,0,0,0-.18,3.63,8.79,8.79,0,0,1,1.32.71c1,.85.42,2.4-.18,3.52-1-.14-1.82,1-1.71,2.06a5.12,5.12,0,0,0,1.5,2.63l4.62,5.3-3.39-.65a12.54,12.54,0,0,0,3.26,4.53,3.31,3.31,0,0,1-2.8-.24,56.74,56.74,0,0,1,3.94,5.79,8,8,0,0,1-4.65-1.39c.41,1.63.81,3.27,1.22,4.9a22,22,0,0,0-10.41-2.84c-1.68,0-3.47.11-4.89-.78-.62-.4-1.2-1-1.94-1a2.79,2.79,0,0,0-1.59.88,14.33,14.33,0,0,1-9.34,3.43,22.13,22.13,0,0,0,5.22-5.78l-2.27-.15c-.26-1.22,1.14-2.05,2.28-2.56s2.43-1.64,1.85-2.73l-3.14.39,4.75-4.32a5,5,0,0,1,.42-5l-4.37,1,4.92-3.49-1.88-.58a25,25,0,0,0,6.3-15.56l-6.2,3.63,4.69-4.12-2.75-.33c-.22-.81.46-1.59,1.17-2.05a5.12,5.12,0,0,0,2-1.54c.41-.73-.07-2-.9-1.81a37.27,37.27,0,0,0,3.19-7.89,9.42,9.42,0,0,0-5.25,1.4l4.11-3.25-3.37-.65a6.91,6.91,0,0,0,4.92-5.37l-2.82-.4a13.71,13.71,0,0,1,3.09-3.31,7.94,7.94,0,0,1-2.94-.38l2.34-2.55a9.75,9.75,0,0,1-3.23-.24c.87-1.19,2.48-1.49,3.82-2.1a3.71,3.71,0,0,0,2.16-3.9,1.19,1.19,0,0,1,1.55.46" transform="translate(0)"/><path class="cls-7" d="M44.75,132.54a4.51,4.51,0,0,1,.41,2.2,11.5,11.5,0,0,0,4.67,8.67,8,8,0,0,1-4.48-2.16,3,3,0,0,0,1.5,2.9l-1.6-.08c1.55,1.81,3.11,3.62,4.66,5.44A6.43,6.43,0,0,1,46.29,148,13.64,13.64,0,0,0,52,160.44c-1.5,1-3.44-.38-4.7-1.69a2.49,2.49,0,0,0,.27,2.47l-2.2-.71A33.31,33.31,0,0,0,50.78,169l-4.51-1.12c.66,2.81,1.55,5.95,4.07,7.37a2.19,2.19,0,0,0-.18,3.63,9.23,9.23,0,0,1,1.32.71c1,.85.42,2.4-.18,3.52-1-.14-1.82,1-1.7,2.06a5.1,5.1,0,0,0,1.49,2.64l4.62,5.29-3.39-.65a12.54,12.54,0,0,0,3.26,4.53,3.24,3.24,0,0,1-2.8-.24,56.74,56.74,0,0,1,3.94,5.79,8,8,0,0,1-4.65-1.39l1.22,4.9a22,22,0,0,0-10.41-2.84c-1.67,0-3.47.11-4.89-.78-.62-.39-1.2-1-1.94-1a2.75,2.75,0,0,0-1.59.89,14.27,14.27,0,0,1-9.34,3.42,22,22,0,0,0,5.22-5.78l-2.27-.15c-.26-1.21,1.15-2.05,2.28-2.55s2.43-1.65,1.85-2.74l-3.14.39,4.75-4.32a5,5,0,0,1,.42-5l-4.37,1,4.92-3.49-1.88-.58a25,25,0,0,0,6.31-15.56L33,170.56l4.69-4.12-2.75-.33c-.22-.81.46-1.59,1.17-2a5.22,5.22,0,0,0,2-1.54c.41-.74-.07-2-.9-1.81a37.56,37.56,0,0,0,3.19-7.9,9.5,9.5,0,0,0-5.25,1.4L39.23,151l-3.37-.65A6.92,6.92,0,0,0,40.79,145l-2.83-.4a13.9,13.9,0,0,1,3.09-3.31,7.86,7.86,0,0,1-2.93-.38l2.33-2.55a9.5,9.5,0,0,1-3.23-.23c.87-1.19,2.48-1.5,3.82-2.11a3.7,3.7,0,0,0,2.16-3.89,1.18,1.18,0,0,1,1.55.46" transform="translate(0)"/><path class="cls-7" d="M212.9,218.59a4.4,4.4,0,0,1,.41,2.2,11.5,11.5,0,0,0,4.67,8.67,8,8,0,0,1-4.47-2.16,3,3,0,0,0,1.49,2.9l-1.6-.08,4.66,5.44a6.43,6.43,0,0,1-3.62-1.48,13.64,13.64,0,0,0,5.75,12.41c-1.5,1-3.44-.38-4.7-1.69a2.49,2.49,0,0,0,.27,2.47l-2.2-.71a33.31,33.31,0,0,0,5.37,8.44l-4.51-1.12c.66,2.82,1.55,5.95,4.07,7.37a2.19,2.19,0,0,0-.18,3.63,8.37,8.37,0,0,1,1.32.72c1,.84.42,2.39-.18,3.52-1-.15-1.82,1-1.7,2.05a5.17,5.17,0,0,0,1.49,2.64l4.62,5.29-3.39-.65a12.46,12.46,0,0,0,3.26,4.53,3.24,3.24,0,0,1-2.8-.24,56.87,56.87,0,0,1,3.94,5.8,8.11,8.11,0,0,1-4.65-1.39c.41,1.63.81,3.26,1.22,4.9A21.76,21.76,0,0,0,211,289.21c-1.67,0-3.47.11-4.89-.79-.62-.39-1.2-1-1.93-1a2.75,2.75,0,0,0-1.6.89,14.27,14.27,0,0,1-9.33,3.42,22,22,0,0,0,5.21-5.78l-2.27-.15c-.26-1.21,1.15-2.05,2.28-2.55s2.43-1.64,1.85-2.74l-3.14.39,4.75-4.32a5,5,0,0,1,.42-5l-4.37,1,4.92-3.49-1.88-.58A25,25,0,0,0,207.36,253l-6.2,3.64,4.68-4.13-2.75-.33c-.22-.81.46-1.59,1.17-2a5.14,5.14,0,0,0,2-1.54c.41-.74-.07-2-.9-1.81a36.83,36.83,0,0,0,3.19-7.9,9.63,9.63,0,0,0-5.25,1.4l4.11-3.24-3.37-.66a6.91,6.91,0,0,0,4.93-5.36l-2.83-.41a13.9,13.9,0,0,1,3.09-3.31,7.86,7.86,0,0,1-2.93-.38l2.33-2.54a9.77,9.77,0,0,1-3.23-.24c.87-1.19,2.48-1.5,3.82-2.11a3.69,3.69,0,0,0,2.16-3.89,1.18,1.18,0,0,1,1.55.46" transform="translate(0)"/><path class="cls-7" d="M274.25,214.82a2.51,2.51,0,0,1,.24,1.28,6.7,6.7,0,0,0,2.72,5.05,4.66,4.66,0,0,1-2.6-1.26,1.75,1.75,0,0,0,.86,1.69l-.93-.05,2.72,3.17a3.73,3.73,0,0,1-2.11-.86,7.93,7.93,0,0,0,3.35,7.22c-.88.6-2-.22-2.74-1a1.44,1.44,0,0,0,.16,1.43l-1.28-.41a19.17,19.17,0,0,0,3.12,4.92l-2.62-.66c.38,1.64.9,3.47,2.37,4.29a1.29,1.29,0,0,0-.11,2.12,5.14,5.14,0,0,1,.77.41c.56.49.25,1.4-.1,2-.59-.08-1.06.6-1,1.2a3,3,0,0,0,.87,1.53l2.69,3.08-2-.37a7.28,7.28,0,0,0,1.9,2.63,1.9,1.9,0,0,1-1.63-.13,32.2,32.2,0,0,1,2.29,3.37,4.73,4.73,0,0,1-2.7-.81c.23,1,.47,1.9.7,2.85a12.63,12.63,0,0,0-6.06-1.65,5.43,5.43,0,0,1-2.84-.46c-.36-.23-.7-.58-1.13-.57a1.68,1.68,0,0,0-.93.52,8.31,8.31,0,0,1-5.43,2,13.2,13.2,0,0,0,3-3.37l-1.32-.09c-.16-.7.66-1.19,1.32-1.49s1.42-.95,1.08-1.59l-1.83.23c.92-.84,1.84-1.68,2.77-2.51a2.88,2.88,0,0,1,.24-2.89l-2.54.56,2.86-2-1.1-.33a14.57,14.57,0,0,0,3.68-9.06L267.42,237l2.72-2.41-1.6-.19c-.13-.47.27-.92.69-1.19a3.06,3.06,0,0,0,1.14-.89c.24-.43,0-1.15-.52-1.06a21.73,21.73,0,0,0,1.85-4.59,5.48,5.48,0,0,0-3.05.81l2.39-1.89-2-.38a4,4,0,0,0,2.87-3.12l-1.65-.24a8,8,0,0,1,1.8-1.92,4.94,4.94,0,0,1-1.71-.22l1.36-1.49a5.4,5.4,0,0,1-1.88-.14c.51-.69,1.44-.87,2.22-1.22a2.17,2.17,0,0,0,1.26-2.27.69.69,0,0,1,.9.27" transform="translate(0)"/><path class="cls-7" d="M711.22,107.72a2.62,2.62,0,0,1,.24,1.28,6.69,6.69,0,0,0,2.72,5,4.68,4.68,0,0,1-2.61-1.26,1.78,1.78,0,0,0,.87,1.69l-.93,0,2.71,3.17a3.74,3.74,0,0,1-2.1-.86,7.93,7.93,0,0,0,3.34,7.22c-.87.6-2-.22-2.73-1a1.44,1.44,0,0,0,.15,1.43L711.6,124a19.42,19.42,0,0,0,3.13,4.91l-2.63-.65c.39,1.64.91,3.47,2.38,4.29a1.28,1.28,0,0,0-.11,2.12,5.14,5.14,0,0,1,.77.41c.55.49.24,1.4-.11,2-.59-.08-1.06.6-1,1.2a3,3,0,0,0,.87,1.53l2.69,3.08-2-.37a7.25,7.25,0,0,0,1.89,2.63,1.91,1.91,0,0,1-1.63-.14,33.38,33.38,0,0,1,2.3,3.37,4.59,4.59,0,0,1-2.71-.81c.24,1,.47,1.91.71,2.86a12.78,12.78,0,0,0-6.06-1.66,5.33,5.33,0,0,1-2.84-.45c-.37-.23-.7-.58-1.13-.57a1.59,1.59,0,0,0-.93.52,8.27,8.27,0,0,1-5.43,2,12.78,12.78,0,0,0,3-3.36l-1.32-.09c-.15-.71.67-1.19,1.33-1.49s1.41-1,1.07-1.59l-1.82.23,2.76-2.52a2.91,2.91,0,0,1,.24-2.88l-2.54.56,2.86-2-1.09-.33a14.56,14.56,0,0,0,3.67-9.06l-3.61,2.11,2.73-2.4-1.6-.19c-.13-.47.27-.93.68-1.19a3,3,0,0,0,1.15-.9c.24-.42,0-1.14-.52-1a21.73,21.73,0,0,0,1.85-4.59,5.52,5.52,0,0,0-3.06.81l2.4-1.89-2-.38a4,4,0,0,0,2.86-3.12l-1.64-.24a7.82,7.82,0,0,1,1.8-1.92,4.94,4.94,0,0,1-1.71-.22l1.36-1.49a5.66,5.66,0,0,1-1.88-.14c.5-.69,1.44-.87,2.22-1.22a2.17,2.17,0,0,0,1.26-2.27.67.67,0,0,1,.9.27" transform="translate(0)"/><path class="cls-7" d="M548.71,200c.37.39,3.49-.1,4.06-.16-1.08-1-2.48-1.4-3.33-2.68-.46-.69-.43-2.44-1-2.92-2-1.6-3,3.22-4.38,4.26h2.3a4.85,4.85,0,0,1-1.12,1.77l1.48.34-2.34,3.24,1.89.06c-.38,1.59-.77,3.17-1.15,4.76a3.75,3.75,0,0,1-.62,1.53c-.67.83-2.13,1.35-1.88,2.39l3.25-.18c-1.84,1.41-1.05,4.31-.1,6.43.27.59.54,1.18.8,1.78L541,224.13a13.53,13.53,0,0,0,5.8-.31,80.84,80.84,0,0,1,.75,9.83,6,6,0,0,0-3.91,1.23,5.56,5.56,0,0,0,2.56.18c.56,1.49-.89,2.94-2.28,3.71s-3.07,1.56-3.38,3.11l5.67-2.6c.4-.18.91-.35,1.24-.07a1.24,1.24,0,0,1,.25,1,27.68,27.68,0,0,0,1.41,10.87c2.33-2.49-1.08-6.92.68-9.82a1.15,1.15,0,0,0,1.31-.92l5.2,1.56c.49.15,1.14.24,1.39-.2.34-.59-.46-1.16-1.1-1.37l-5.45-1.78A7.54,7.54,0,0,1,556,239c-.69-1.72-3.65-1.1-4.67-2.65a3.44,3.44,0,0,1-.43-1.49q-.58-4.58-1.16-9.16a12.93,12.93,0,0,0,5.16,5.74l-2.19-3.32a9,9,0,0,1,3.57,1.12c.5-.35.33-1.19-.15-1.57a4.24,4.24,0,0,0-1.71-.62,6.81,6.81,0,0,1-4.54-8.56,13.67,13.67,0,0,0,4.53,2.18,6.3,6.3,0,0,0-2.26-2,12.62,12.62,0,0,0,4.56.67c-1-1.76-3.53-1.46-5.33-2.33a4.2,4.2,0,0,1-2.25-4.37l.85-.05a42.4,42.4,0,0,1-1.53-9.82l2.21.26a9.94,9.94,0,0,0-1.95-2.93" transform="translate(0)"/><path class="cls-7" d="M157.09,189.64c.37.38,3.49-.11,4.06-.17-1.08-1-2.47-1.39-3.33-2.67-.46-.69-.43-2.44-1-2.92-2-1.6-3,3.22-4.38,4.26h2.3a4.85,4.85,0,0,1-1.12,1.77l1.48.33-2.34,3.24,1.89.07c-.38,1.59-.77,3.17-1.15,4.76a3.81,3.81,0,0,1-.62,1.53c-.67.83-2.13,1.35-1.88,2.39l3.25-.19c-1.84,1.42-1.05,4.32-.1,6.44l.81,1.77-5.58,3.49a13.52,13.52,0,0,0,5.8-.31,80.69,80.69,0,0,1,.75,9.83,6,6,0,0,0-3.9,1.22,5.38,5.38,0,0,0,2.55.19c.57,1.48-.89,2.94-2.28,3.71s-3.07,1.55-3.38,3.11l5.68-2.6c.39-.19.9-.36,1.24-.07a1.19,1.19,0,0,1,.24,1,27.84,27.84,0,0,0,1.41,10.87c2.33-2.48-1.08-6.91.68-9.82a1.13,1.13,0,0,0,1.31-.91l5.2,1.56c.49.15,1.14.24,1.4-.21s-.47-1.15-1.11-1.36l-5.45-1.78a7.54,7.54,0,0,1,4.89.35c-.69-1.72-3.65-1.09-4.67-2.64a3.44,3.44,0,0,1-.43-1.49c-.38-3.05-.77-6.11-1.16-9.16a12.93,12.93,0,0,0,5.16,5.74l-2.19-3.32a8.83,8.83,0,0,1,3.57,1.12c.5-.35.33-1.19-.15-1.57a4.24,4.24,0,0,0-1.71-.62,6.81,6.81,0,0,1-4.54-8.56,14.17,14.17,0,0,0,4.53,2.18,6.13,6.13,0,0,0-2.26-2,12.4,12.4,0,0,0,4.56.66c-1-1.75-3.53-1.45-5.33-2.32a4.22,4.22,0,0,1-2.25-4.37l.85-.06a42.3,42.3,0,0,1-1.52-9.81l2.2.26a9.81,9.81,0,0,0-1.95-2.93" transform="translate(0)"/><path class="cls-7" d="M674.42,142.84c.37.39,3.49-.11,4.06-.16-1.08-1-2.48-1.4-3.33-2.68-.46-.69-.43-2.44-1-2.92-2-1.6-3,3.22-4.38,4.26H672a4.82,4.82,0,0,1-1.11,1.77l1.48.34-2.34,3.24,1.88.06-1.14,4.76a3.75,3.75,0,0,1-.62,1.53c-.67.83-2.13,1.35-1.88,2.39l3.25-.18c-1.84,1.41-1.06,4.31-.1,6.43.27.59.53,1.18.8,1.78L666.67,167a13.57,13.57,0,0,0,5.81-.31,78.87,78.87,0,0,1,.74,9.83,6,6,0,0,0-3.9,1.23,5.55,5.55,0,0,0,2.56.18c.56,1.49-.89,2.94-2.28,3.71s-3.07,1.56-3.38,3.11l5.67-2.6c.4-.18.91-.35,1.24-.07a1.24,1.24,0,0,1,.25,1,27.68,27.68,0,0,0,1.41,10.87c2.32-2.49-1.08-6.92.68-9.83a1.12,1.12,0,0,0,1.3-.91l5.21,1.56c.48.15,1.14.24,1.39-.2.34-.59-.46-1.16-1.1-1.37l-5.46-1.78a7.57,7.57,0,0,1,4.9.36c-.69-1.72-3.66-1.1-4.68-2.65a3.43,3.43,0,0,1-.42-1.49l-1.17-9.16a13,13,0,0,0,5.16,5.74c-.73-1.1-1.45-2.21-2.18-3.32A9,9,0,0,1,682,172c.5-.35.32-1.19-.15-1.57a4.24,4.24,0,0,0-1.71-.62,6.81,6.81,0,0,1-4.54-8.56,13.87,13.87,0,0,0,4.53,2.18,6.3,6.3,0,0,0-2.26-2,12.59,12.59,0,0,0,4.56.67c-.95-1.76-3.54-1.46-5.33-2.33a4.2,4.2,0,0,1-2.25-4.37l.85,0a42.4,42.4,0,0,1-1.53-9.82l2.21.26a10.14,10.14,0,0,0-2-2.93" transform="translate(0)"/><path class="cls-8" d="M750,202.38a6,6,0,0,0-4.32,2.87c-.75,1.31-1,2.94-2,4.05-2.6,2.81-7.37.07-11.06,1.06-4.72,1.26-7.93,8.52-12.33,6.42-1.23-.59-2.09-1.85-3.4-2.22-2.56-.72-4.58,2.34-5,5s-.27,5.68-2.26,7.44c-1.26,1.11-3,1.38-4.49,2.24s-2.44,3-1.21,4.16a44.35,44.35,0,0,0-22.7-7.23c1.19,2-2.3,3.92-4.41,2.87s-3.38-3.34-5.5-4.37c-3.87-1.87-9,2.73-7.47,6.77a8.54,8.54,0,0,0-11.08,5,5.61,5.61,0,0,1-1.13,2.5c-1.1,1.05-3,.62-4.28,1.45-2,1.33-1.14,4.46,0,6.62l-7.24-.16q.3,6.09.61,12.18a3.12,3.12,0,0,1-.17,1.46c-.68,1.44-2.92.91-4.1-.17s-2.28-2.6-3.88-2.57c-2.36,0-3.11,3.17-3.15,5.53a7.05,7.05,0,0,1-7.39.32,20.4,20.4,0,0,0-3.27-2c-3.06-1-6.34,3-4.74,5.81-2.43,3.05-7.2-3.18-10.77-1.6-1.85.82-2.18,3.24-3.08,5-2.3,4.62-10.05,4.87-12.64.41a13.7,13.7,0,0,0-1.81-3.08c-1.58-1.57-4.15-1.3-6.34-.91,0-2.44-.6-5.08-2.52-6.57s-5.33-1-6.1,1.27c-.49,1.47.18,3.18-.46,4.6-1.11,2.5-5.17,2.14-6.69,4.41-1.67,2.48.59,6.69-1.83,8.44-1.78,1.3-4.61-.13-6.35,1.21s-1,4.1-1.94,6c-2.34,4.72-11.76.88-13.8,5.74-.44,1.06-.36,2.32-1,3.28-2.06,3.08-8.16-.56-10.22,2.52a8.81,8.81,0,0,0-.79,3c-.75,3.3-4.16,5.44-7.53,5.81s-6.7-.66-9.93-1.67c-1.89-2.82-7-3.39-10.39-3.34a3.25,3.25,0,0,0-1.71.4c-1.82,1.19-.45,4.15-1.3,6.16-1.17,1.15-3.13.95-4.63.26s-2.81-1.77-4.39-2.23c-2.63-.75-5.4.36-7.91,1.44a2.94,2.94,0,0,0-1.77,1.43c-.37,1,.37,2.48-.53,3.09-3.43,2.33-8.61,3.08-11.6.21l-1.79,9.35a23.44,23.44,0,0,1-9.94-2.84c1.18,3.73-4.29,6.16-8.08,5.19s-7.56-3.44-11.3-2.29c-5.77,1.78-9.83,11.42-14.81,8-1.52-1-2.12-3-3.53-4.21-3.2-2.66-7.83.11-11.43,2.17s-9.85,2.17-10.24-2l-3.42,6.36a73,73,0,0,0-47.72,5.44H750Z" transform="translate(0)"/><path class="cls-8" d="M247.26,326.76l-6.06-1.28c-6.69-1.41-13.38-3-20.1-4.25-4.56-.86-11.85.93-15.59-.63a5.7,5.7,0,0,1-3.32-6.64c-2.56,1.23-5.23,2.47-8.07,2.5s-5.91-1.54-6.67-4.28c-.51-1.81-.09-4.14-1.6-5.27-2-1.52-4.58.92-6.89,2A6.73,6.73,0,0,1,169.9,304c-4-.86-5.58,1.68-9-.73-1.88-1.33-.9-5.78-4-7.42-4.94-2.6-5.73,4.24-9.43,4.1-3.42-.13-7.14-5.27-9.74-7.15-3,2.59-7.81,1.93-11-.47s-5-6.1-6.57-9.72c-2.4-5.5-7.17-12.37-12.64-9.9a10.29,10.29,0,0,0-16.63-10.84l-14.11-5.85c-1.8-.75-3.85-1.49-5.62-.69-4.49,2-1.14,10-4.85,13.29-2.46,2.14-6.2.78-9.39.09s-7.75.75-7.26,4c.27,1.82-5.46-2-5.28-2-5.09.37-1.86,2.49-5,5.06-1.93,1.56-5.64,3.34-8.48,5.56-2.14,1.68-3.79,3.61-3.81,5.9,0,3.31,2.83,6.48,1.75,9.61-2.56.51-4.49-2.15-6-4.29s-4.43-4.24-6.43-2.56c-2.36,2-.06,6.82-2.66,8.49-3.61,2.33-6.17-4.82-9.59-4.42-1.57.18-2.92,1.33-4.2,2.83v41H299.47c-5.78-1.35-11.58-2.58-17.38-3.81l-34.83-7.37" transform="translate(0)"/><path class="cls-8" d="M603.18,169.92a6.79,6.79,0,0,0-.64,3.45A18,18,0,0,1,595.21,187a12.55,12.55,0,0,0,7-3.39,4.75,4.75,0,0,1-2.34,4.55l2.5-.13-7.3,8.52a10,10,0,0,0,5.68-2.32,21.41,21.41,0,0,1-9,19.46c2.36,1.6,5.39-.6,7.37-2.65a3.9,3.9,0,0,1-.43,3.87l3.45-1.11A52.1,52.1,0,0,1,593.73,227l7.07-1.77c-1,4.42-2.43,9.33-6.39,11.56a3.44,3.44,0,0,1,.29,5.69,14.79,14.79,0,0,0-2.08,1.12c-1.49,1.32-.65,3.75.29,5.52,1.59-.23,2.85,1.61,2.67,3.21s-1.28,2.92-2.34,4.14q-3.62,4.14-7.24,8.29l5.31-1a19.6,19.6,0,0,1-5.11,7.1,5.16,5.16,0,0,0,4.4-.38,88.59,88.59,0,0,0-6.19,9.08,12.54,12.54,0,0,0,7.29-2.18c-.63,2.56-1.27,5.12-1.9,7.68a34.33,34.33,0,0,1,16.31-4.45c2.62,0,5.44.17,7.66-1.23,1-.61,1.88-1.55,3-1.52a4.4,4.4,0,0,1,2.51,1.39,22.4,22.4,0,0,0,14.62,5.37,35,35,0,0,1-8.18-9.06l3.56-.24c.42-1.9-1.79-3.21-3.57-4s-3.81-2.57-2.89-4.29l4.91.61-7.44-6.76a7.83,7.83,0,0,0-.65-7.78l6.84,1.5-7.71-5.47,3-.9a39.26,39.26,0,0,1-9.89-24.39l9.72,5.7-7.34-6.47,4.31-.51c.35-1.28-.72-2.5-1.84-3.21s-2.43-1.26-3.08-2.41.11-3.08,1.4-2.84a57.94,57.94,0,0,1-5-12.37,14.9,14.9,0,0,1,8.23,2.19l-6.45-5.09,5.29-1a10.83,10.83,0,0,1-7.72-8.41l4.43-.63a21.56,21.56,0,0,0-4.85-5.19,12.59,12.59,0,0,0,4.6-.59l-3.66-4a15.12,15.12,0,0,0,5.06-.37c-1.36-1.87-3.88-2.34-6-3.3a5.8,5.8,0,0,1-3.38-6.1,1.84,1.84,0,0,0-2.43.72" transform="translate(0)"/><path class="cls-8" d="M577.64,213.06a6.93,6.93,0,0,1,.63,3.45,18.05,18.05,0,0,0,7.33,13.6,12.62,12.62,0,0,1-7-3.39,4.78,4.78,0,0,0,2.34,4.55l-2.5-.14q3.65,4.27,7.3,8.53a10,10,0,0,1-5.68-2.32,21.41,21.41,0,0,0,9,19.45c-2.36,1.61-5.39-.59-7.36-2.65a3.88,3.88,0,0,0,.42,3.87l-3.45-1.1a52.14,52.14,0,0,0,8.41,13.22L580,268.37c1,4.42,2.43,9.33,6.38,11.56a3.44,3.44,0,0,0-.29,5.69,13.78,13.78,0,0,1,2.08,1.11c1.49,1.33.65,3.76-.29,5.52-1.59-.23-2.85,1.62-2.67,3.22a8,8,0,0,0,2.34,4.13l7.24,8.3-5.31-1a19.51,19.51,0,0,0,5.11,7.1,5.13,5.13,0,0,1-4.39-.37,89,89,0,0,1,6.18,9.08,12.69,12.69,0,0,1-7.29-2.18c.63,2.56,1.27,5.12,1.9,7.68a34.18,34.18,0,0,0-16.31-4.45c-2.62-.05-5.44.17-7.65-1.23-1-.62-1.89-1.56-3-1.52a4.34,4.34,0,0,0-2.51,1.39,22.45,22.45,0,0,1-14.62,5.37,35,35,0,0,0,8.18-9.06l-3.56-.24c-.41-1.91,1.79-3.22,3.57-4s3.81-2.57,2.89-4.28l-4.91.61,7.44-6.77a7.81,7.81,0,0,1,.65-7.77l-6.84,1.5,7.71-5.47-3-.9A39.29,39.29,0,0,0,569,267l-9.72,5.69,7.34-6.46-4.31-.52c-.35-1.27.72-2.49,1.84-3.2s2.43-1.26,3.08-2.42-.1-3.07-1.4-2.83a58.37,58.37,0,0,0,5-12.37,14.81,14.81,0,0,0-8.23,2.18L569,242l-5.28-1a10.82,10.82,0,0,0,7.71-8.4L567,231.9a21.39,21.39,0,0,1,4.85-5.19,12.6,12.6,0,0,1-4.6-.6l3.66-4a15.39,15.39,0,0,1-5.06-.37c1.36-1.87,3.88-2.34,6-3.31a5.78,5.78,0,0,0,3.38-6.1,1.86,1.86,0,0,1,2.44.72" transform="translate(0)"/><path class="cls-8" d="M648.34,189.06a6.83,6.83,0,0,1,.64,3.45,18.05,18.05,0,0,0,7.33,13.6,12.62,12.62,0,0,1-7-3.39,4.77,4.77,0,0,0,2.34,4.55l-2.5-.14q3.64,4.27,7.3,8.53a10,10,0,0,1-5.68-2.32,21.41,21.41,0,0,0,9,19.45c-2.36,1.61-5.39-.59-7.37-2.65a3.9,3.9,0,0,0,.43,3.87l-3.45-1.1a51.87,51.87,0,0,0,8.41,13.22l-7.07-1.76c1,4.42,2.43,9.33,6.39,11.56a3.44,3.44,0,0,0-.29,5.69,13.78,13.78,0,0,1,2.08,1.11c1.49,1.33.65,3.76-.29,5.52-1.59-.23-2.85,1.62-2.67,3.22a8,8,0,0,0,2.34,4.13l7.24,8.3-5.31-1a19.51,19.51,0,0,0,5.11,7.1,5.15,5.15,0,0,1-4.4-.37,87.51,87.51,0,0,1,6.19,9.08,12.69,12.69,0,0,1-7.29-2.18c.63,2.56,1.27,5.12,1.9,7.68a34.21,34.21,0,0,0-16.31-4.45c-2.62-.05-5.44.17-7.66-1.23-1-.62-1.88-1.56-3-1.52a4.34,4.34,0,0,0-2.51,1.39,22.45,22.45,0,0,1-14.62,5.37,35,35,0,0,0,8.18-9.06l-3.56-.24c-.42-1.91,1.79-3.22,3.57-4s3.81-2.57,2.89-4.28l-4.91.61L631.2,280a7.81,7.81,0,0,1,.65-7.77l-6.84,1.5,7.71-5.47-3-.9A39.29,39.29,0,0,0,639.66,243l-9.72,5.69,7.34-6.46-4.31-.52c-.35-1.27.72-2.49,1.84-3.2s2.43-1.26,3.08-2.42-.11-3.07-1.4-2.83a58.37,58.37,0,0,0,5-12.37,14.81,14.81,0,0,0-8.23,2.18L639.7,218l-5.29-1a10.81,10.81,0,0,0,7.72-8.4l-4.43-.63a21.19,21.19,0,0,1,4.85-5.19,12.6,12.6,0,0,1-4.6-.6l3.66-4a15.39,15.39,0,0,1-5.06-.37c1.36-1.87,3.88-2.34,6-3.31a5.79,5.79,0,0,0,3.38-6.1,1.85,1.85,0,0,1,2.43.72" transform="translate(0)"/><path class="cls-8" d="M65.69,176.06a6.93,6.93,0,0,0-.63,3.45,18.08,18.08,0,0,1-7.33,13.6,12.62,12.62,0,0,0,7-3.39,4.78,4.78,0,0,1-2.34,4.55l2.5-.14q-3.64,4.27-7.31,8.53a10,10,0,0,0,5.69-2.32,21.41,21.41,0,0,1-9,19.45c2.36,1.61,5.39-.59,7.36-2.65a3.88,3.88,0,0,1-.42,3.87l3.45-1.1a52.14,52.14,0,0,1-8.41,13.22l7.06-1.76c-1,4.42-2.43,9.33-6.38,11.56a3.44,3.44,0,0,1,.29,5.69,13.78,13.78,0,0,0-2.08,1.11c-1.49,1.33-.65,3.76.29,5.52,1.59-.23,2.85,1.62,2.67,3.22a8,8,0,0,1-2.34,4.13l-7.24,8.3,5.31-1a19.51,19.51,0,0,1-5.11,7.1,5.13,5.13,0,0,0,4.39-.37,89,89,0,0,0-6.18,9.08,12.69,12.69,0,0,0,7.29-2.18q-1,3.84-1.9,7.68a34.18,34.18,0,0,1,16.31-4.45c2.62-.05,5.44.17,7.65-1.23,1-.62,1.89-1.56,3-1.52a4.34,4.34,0,0,1,2.51,1.39,22.45,22.45,0,0,0,14.62,5.37,35,35,0,0,1-8.18-9.06l3.56-.24c.41-1.91-1.79-3.22-3.57-4s-3.81-2.57-2.89-4.28l4.91.61L82.84,267a7.81,7.81,0,0,0-.65-7.77l6.84,1.5-7.71-5.47,3-.9A39.29,39.29,0,0,1,74.38,230l9.72,5.69-7.34-6.46,4.31-.52c.35-1.27-.72-2.49-1.84-3.2s-2.43-1.26-3.08-2.42.1-3.07,1.4-2.83a58.37,58.37,0,0,1-5-12.37A14.81,14.81,0,0,1,80.79,210L74.34,205l5.28-1a10.82,10.82,0,0,1-7.71-8.4l4.43-.63a21.39,21.39,0,0,0-4.85-5.19,12.6,12.6,0,0,0,4.6-.6l-3.66-4a15.39,15.39,0,0,0,5.06-.37c-1.36-1.87-3.88-2.34-6-3.31a5.78,5.78,0,0,1-3.38-6.1,1.86,1.86,0,0,0-2.44.72" transform="translate(0)"/><path class="cls-8" d="M100.6,217.33a4.46,4.46,0,0,0-.42,2.27,11.93,11.93,0,0,1-4.83,9,8.35,8.35,0,0,0,4.63-2.24,3.14,3.14,0,0,1-1.55,3l1.65-.08-4.82,5.62A6.57,6.57,0,0,0,99,233.35a14.14,14.14,0,0,1-6,12.85c1.56,1.05,3.56-.4,4.86-1.76a2.59,2.59,0,0,1-.28,2.56l2.28-.73A34.67,34.67,0,0,1,94.37,255L99,253.84c-.68,2.91-1.6,6.16-4.21,7.63a2.27,2.27,0,0,1,.19,3.75,9.4,9.4,0,0,0-1.37.74c-1,.87-.44,2.48.18,3.64,1.06-.15,1.89,1.07,1.77,2.13A5.35,5.35,0,0,1,94,274.46l-4.77,5.47,3.5-.67A12.88,12.88,0,0,1,89.4,284a3.37,3.37,0,0,0,2.9-.25,56.56,56.56,0,0,0-4.08,6A8.34,8.34,0,0,0,93,288.26l-1.26,5.07a22.62,22.62,0,0,1,10.77-2.94c1.73,0,3.59.11,5-.81.65-.41,1.25-1,2-1a2.89,2.89,0,0,1,1.65.92,14.81,14.81,0,0,0,9.66,3.55,23,23,0,0,1-5.4-6l2.35-.16c.27-1.26-1.19-2.12-2.36-2.65s-2.52-1.69-1.91-2.83l3.24.41-4.91-4.47a5.16,5.16,0,0,0-.43-5.13l4.52,1-5.09-3.61,2-.6a25.81,25.81,0,0,1-6.53-16.1l6.41,3.76-4.84-4.27,2.84-.34c.23-.84-.48-1.64-1.21-2.11a5.32,5.32,0,0,1-2-1.6c-.42-.76.07-2,.93-1.87a38.1,38.1,0,0,1-3.3-8.17,9.84,9.84,0,0,1,5.44,1.45l-4.26-3.36,3.49-.68a7.13,7.13,0,0,1-5.1-5.55l2.93-.41a14.5,14.5,0,0,0-3.2-3.43,8.27,8.27,0,0,0,3-.39l-2.42-2.64a9.88,9.88,0,0,0,3.34-.24c-.9-1.23-2.56-1.55-4-2.18a3.83,3.83,0,0,1-2.23-4,1.22,1.22,0,0,0-1.61.48" transform="translate(0)"/><path class="cls-8" d="M39.71,247.34a4.74,4.74,0,0,1,.42,2.28,11.9,11.9,0,0,0,4.83,9,8.29,8.29,0,0,1-4.63-2.24,3.13,3.13,0,0,0,1.54,3l-1.65-.09,4.83,5.63a6.55,6.55,0,0,1-3.75-1.53,14.09,14.09,0,0,0,6,12.84c-1.56,1.06-3.56-.39-4.86-1.75a2.58,2.58,0,0,0,.27,2.56l-2.27-.73A34.12,34.12,0,0,0,45.94,285l-4.66-1.16c.68,2.91,1.6,6.16,4.21,7.62a2.27,2.27,0,0,0-.19,3.76,9.48,9.48,0,0,1,1.37.74c1,.87.43,2.48-.19,3.64-1-.15-1.88,1.07-1.76,2.13a5.37,5.37,0,0,0,1.54,2.73L51,310l-3.5-.67A12.88,12.88,0,0,0,50.91,314a3.4,3.4,0,0,1-2.9-.25,58,58,0,0,1,4.08,6,8.24,8.24,0,0,1-4.81-1.44l1.26,5.07a22.72,22.72,0,0,0-10.77-2.93c-1.73,0-3.59.11-5.06-.81-.64-.41-1.24-1-2-1a2.83,2.83,0,0,0-1.65.92,14.82,14.82,0,0,1-9.66,3.54,23,23,0,0,0,5.4-6l-2.35-.16c-.27-1.25,1.18-2.12,2.36-2.64s2.51-1.7,1.91-2.83l-3.24.4,4.91-4.46a5.13,5.13,0,0,1,.43-5.13l-4.52,1,5.09-3.61-1.95-.6A25.84,25.84,0,0,0,34,282.93l-6.42,3.76,4.85-4.27-2.84-.34c-.23-.84.47-1.65,1.21-2.11a5.31,5.31,0,0,0,2-1.6c.43-.76-.07-2-.92-1.87a38.81,38.81,0,0,0,3.29-8.17,9.81,9.81,0,0,0-5.43,1.45L34,266.42l-3.49-.68a7.15,7.15,0,0,0,5.09-5.55l-2.92-.41a14.11,14.11,0,0,1,3.2-3.43,8.24,8.24,0,0,1-3-.39l2.42-2.64a10.14,10.14,0,0,1-3.34-.24c.89-1.24,2.56-1.55,3.95-2.18a3.83,3.83,0,0,0,2.23-4,1.22,1.22,0,0,1,1.61.47" transform="translate(0)"/><path class="cls-8" d="M687.41,209a4.5,4.5,0,0,1,.42,2.28,11.9,11.9,0,0,0,4.84,9,8.22,8.22,0,0,1-4.63-2.24,3.14,3.14,0,0,0,1.54,3l-1.65-.09,4.82,5.63a6.64,6.64,0,0,1-3.75-1.53,14.13,14.13,0,0,0,6,12.84c-1.55,1.06-3.55-.4-4.86-1.75a2.57,2.57,0,0,0,.28,2.55l-2.28-.73a34.73,34.73,0,0,0,5.55,8.74L689,245.55c.69,2.92,1.61,6.16,4.22,7.63a2.27,2.27,0,0,0-.19,3.76,9.43,9.43,0,0,1,1.37.73c1,.88.43,2.48-.19,3.65-1.05-.15-1.88,1.07-1.77,2.12a5.31,5.31,0,0,0,1.55,2.73l4.78,5.48-3.51-.67a12.87,12.87,0,0,0,3.38,4.68,3.39,3.39,0,0,1-2.9-.24,59.6,59.6,0,0,1,4.08,6A8.32,8.32,0,0,1,695,280c.42,1.69.83,3.38,1.25,5.07a22.62,22.62,0,0,0-10.77-2.94c-1.73,0-3.59.12-5.05-.81-.64-.4-1.24-1-2-1a2.89,2.89,0,0,0-1.65.92,14.82,14.82,0,0,1-9.65,3.54,22.78,22.78,0,0,0,5.39-6l-2.34-.16c-.28-1.26,1.18-2.12,2.35-2.64s2.52-1.7,1.91-2.83l-3.24.4,4.91-4.47a5.18,5.18,0,0,1,.43-5.13l-4.51,1,5.08-3.61-1.94-.59a25.88,25.88,0,0,0,6.52-16.1l-6.41,3.75,4.85-4.26-2.85-.34c-.23-.84.48-1.65,1.21-2.12a5.39,5.39,0,0,0,2-1.59c.42-.76-.07-2-.93-1.88a38.23,38.23,0,0,0,3.3-8.16,9.88,9.88,0,0,0-5.43,1.44l4.25-3.36-3.48-.67a7.16,7.16,0,0,0,5.09-5.55l-2.92-.42a13.88,13.88,0,0,1,3.2-3.42,8.22,8.22,0,0,1-3-.4L683,215a10.16,10.16,0,0,1-3.34-.25c.9-1.23,2.57-1.54,4-2.18a3.83,3.83,0,0,0,2.24-4,1.23,1.23,0,0,1,1.6.48" transform="translate(0)"/><path class="cls-8" d="M695.84,208.47a4.57,4.57,0,0,0-.43,2.27,11.87,11.87,0,0,1-4.83,9,8.29,8.29,0,0,0,4.63-2.24,3.14,3.14,0,0,1-1.54,3l1.65-.09q-2.42,2.81-4.82,5.63a6.68,6.68,0,0,0,3.75-1.54,14.14,14.14,0,0,1-6,12.85c1.56,1.06,3.56-.4,4.87-1.75a2.57,2.57,0,0,1-.28,2.55l2.27-.73a34.12,34.12,0,0,1-5.55,8.73l4.67-1.16c-.69,2.92-1.61,6.16-4.22,7.63a2.26,2.26,0,0,1,.19,3.75,10.57,10.57,0,0,0-1.37.74c-1,.88-.43,2.48.19,3.64,1.05-.14,1.88,1.07,1.76,2.13a5.22,5.22,0,0,1-1.54,2.73l-4.78,5.47,3.5-.66a12.85,12.85,0,0,1-3.37,4.68,3.39,3.39,0,0,0,2.9-.24,56.91,56.91,0,0,0-4.08,6,8.32,8.32,0,0,0,4.81-1.44L687,284.47a22.62,22.62,0,0,1,10.77-2.94c1.73,0,3.59.11,5.06-.81.64-.41,1.24-1,2-1a2.87,2.87,0,0,1,1.66.91,14.78,14.78,0,0,0,9.65,3.55,23.16,23.16,0,0,1-5.4-6l2.35-.16c.27-1.26-1.18-2.12-2.36-2.64s-2.51-1.7-1.91-2.83l3.25.4-4.92-4.47a5.13,5.13,0,0,0-.43-5.13l4.52,1-5.09-3.61,2-.6a25.9,25.9,0,0,1-6.53-16.1l6.42,3.76-4.85-4.26,2.85-.34c.23-.85-.48-1.65-1.22-2.12a5.36,5.36,0,0,1-2-1.59c-.43-.76.07-2,.93-1.88a38.23,38.23,0,0,1-3.3-8.16,9.8,9.8,0,0,1,5.43,1.44l-4.26-3.36,3.49-.67a7.15,7.15,0,0,1-5.09-5.55l2.92-.42a13.88,13.88,0,0,0-3.2-3.42,8.46,8.46,0,0,0,3-.4c-.8-.88-1.61-1.76-2.42-2.63a10.14,10.14,0,0,0,3.34-.25c-.89-1.23-2.56-1.54-4-2.18a3.84,3.84,0,0,1-2.23-4,1.22,1.22,0,0,0-1.6.48" transform="translate(0)"/><path class="cls-8" d="M728.53,156.24a4.46,4.46,0,0,0-.42,2.27,11.91,11.91,0,0,1-4.84,9,8.29,8.29,0,0,0,4.63-2.24,3.14,3.14,0,0,1-1.54,3l1.65-.09c-1.61,1.87-3.21,3.75-4.82,5.63a6.71,6.71,0,0,0,3.75-1.53,14.14,14.14,0,0,1-6,12.84c1.56,1.06,3.56-.4,4.87-1.75a2.57,2.57,0,0,1-.28,2.55l2.28-.73a34.43,34.43,0,0,1-5.56,8.73l4.67-1.16c-.69,2.92-1.61,6.16-4.22,7.63a2.27,2.27,0,0,1,.19,3.76,9.43,9.43,0,0,0-1.37.73c-1,.88-.43,2.48.19,3.64,1-.14,1.88,1.07,1.76,2.13a5.22,5.22,0,0,1-1.54,2.73l-4.78,5.48,3.5-.67a12.85,12.85,0,0,1-3.37,4.68,3.39,3.39,0,0,0,2.9-.24,59.6,59.6,0,0,0-4.08,6,8.32,8.32,0,0,0,4.81-1.44q-.63,2.54-1.25,5.07a22.58,22.58,0,0,1,10.76-2.94c1.73,0,3.59.11,5.06-.81.64-.41,1.24-1,2-1a2.87,2.87,0,0,1,1.66.91,14.78,14.78,0,0,0,9.65,3.55,23.16,23.16,0,0,1-5.4-6l2.35-.16c.27-1.26-1.18-2.12-2.35-2.64s-2.52-1.7-1.91-2.83l3.24.4-4.91-4.47a5.16,5.16,0,0,0-.44-5.13l4.52,1-5.09-3.61,1.95-.6a25.9,25.9,0,0,1-6.53-16.1l6.42,3.76-4.85-4.26,2.85-.34c.23-.84-.48-1.65-1.22-2.12a5.44,5.44,0,0,1-2-1.59c-.43-.76.07-2,.93-1.88a38.23,38.23,0,0,1-3.3-8.16,9.88,9.88,0,0,1,5.43,1.44l-4.26-3.36,3.49-.67a7.16,7.16,0,0,1-5.09-5.55l2.92-.42a13.88,13.88,0,0,0-3.2-3.42,8.46,8.46,0,0,0,3-.4c-.8-.88-1.61-1.75-2.42-2.63a10.2,10.2,0,0,0,3.35-.25c-.9-1.23-2.57-1.54-4-2.18a3.83,3.83,0,0,1-2.24-4,1.22,1.22,0,0,0-1.6.48" transform="translate(0)"/><path class="cls-8" d="M129.59,203.19a6.35,6.35,0,0,0-.58,3.13,16.33,16.33,0,0,1-6.65,12.34,11.32,11.32,0,0,0,6.37-3.08,4.31,4.31,0,0,1-2.12,4.13l2.27-.12-6.63,7.74a9.06,9.06,0,0,0,5.15-2.1,19.42,19.42,0,0,1-8.18,17.66c2.14,1.45,4.89-.55,6.69-2.41a3.54,3.54,0,0,1-.39,3.51l3.13-1A47.27,47.27,0,0,1,121,255l6.41-1.6c-.94,4-2.2,8.47-5.79,10.49a3.13,3.13,0,0,1,.26,5.17,13.64,13.64,0,0,0-1.89,1c-1.35,1.2-.59,3.41.26,5,1.45-.21,2.59,1.47,2.43,2.92a7.3,7.3,0,0,1-2.13,3.75L114,289.27l4.82-.92a17.7,17.7,0,0,1-4.64,6.45,4.7,4.7,0,0,0,4-.34,79.68,79.68,0,0,0-5.61,8.24,11.42,11.42,0,0,0,6.61-2c-.57,2.32-1.15,4.65-1.72,7a31,31,0,0,1,14.81-4c2.37,0,4.93.15,6.94-1.12.89-.55,1.71-1.41,2.76-1.38a4,4,0,0,1,2.27,1.27,20.37,20.37,0,0,0,13.28,4.87,31.61,31.61,0,0,1-7.42-8.22l3.23-.22c.37-1.73-1.63-2.92-3.24-3.64s-3.46-2.33-2.63-3.89l4.46.56-6.76-6.14a7.09,7.09,0,0,0-.59-7.06l6.21,1.36-7-5,2.67-.82a35.59,35.59,0,0,1-9-22.14l8.82,5.17-6.67-5.87,3.92-.47c.31-1.15-.66-2.26-1.67-2.9s-2.21-1.15-2.8-2.2.1-2.79,1.28-2.57a52.85,52.85,0,0,1-4.54-11.23,13.55,13.55,0,0,1,7.47,2l-5.85-4.62,4.8-.93a9.83,9.83,0,0,1-7-7.63l4-.58a19.28,19.28,0,0,0-4.4-4.7A11.6,11.6,0,0,0,139,215l-3.32-3.63a13.66,13.66,0,0,0,4.59-.34c-1.23-1.69-3.52-2.12-5.43-3a5.25,5.25,0,0,1-3.07-5.53,1.68,1.68,0,0,0-2.21.65" transform="translate(0)"/><path class="cls-8" d="M174.54,223.5a6.31,6.31,0,0,0-.58,3.13A16.4,16.4,0,0,1,167.31,239a11.45,11.45,0,0,0,6.37-3.08,4.31,4.31,0,0,1-2.12,4.13l2.27-.12-6.63,7.74a9.07,9.07,0,0,0,5.15-2.11,19.42,19.42,0,0,1-8.18,17.66c2.14,1.45,4.89-.54,6.68-2.41a3.56,3.56,0,0,1-.38,3.52l3.13-1a47.32,47.32,0,0,1-7.63,12l6.41-1.6c-.94,4-2.21,8.47-5.8,10.49a3.11,3.11,0,0,1,.26,5.16,13.11,13.11,0,0,0-1.88,1c-1.36,1.2-.59,3.4.26,5,1.45-.2,2.59,1.47,2.43,2.93a7.3,7.3,0,0,1-2.13,3.75L159,309.58l4.82-.92a17.66,17.66,0,0,1-4.64,6.44,4.7,4.7,0,0,0,4-.34,80.77,80.77,0,0,0-5.61,8.24,11.44,11.44,0,0,0,6.61-2c-.57,2.33-1.15,4.65-1.72,7a31.1,31.1,0,0,1,14.8-4c2.38,0,4.94.16,7-1.11.89-.56,1.71-1.41,2.76-1.38a3.91,3.91,0,0,1,2.27,1.26,20.32,20.32,0,0,0,13.28,4.87,31.49,31.49,0,0,1-7.43-8.22l3.23-.22c.38-1.72-1.62-2.91-3.24-3.63s-3.45-2.34-2.62-3.89l4.45.55L190.1,306a7.09,7.09,0,0,0-.59-7.06l6.21,1.37-7-5,2.67-.82a35.59,35.59,0,0,1-9-22.14l8.82,5.17-6.67-5.87,3.92-.46c.31-1.16-.66-2.27-1.67-2.91s-2.21-1.15-2.8-2.19.09-2.79,1.27-2.58a52.82,52.82,0,0,1-4.53-11.23,13.57,13.57,0,0,1,7.47,2l-5.85-4.62,4.79-.93a9.84,9.84,0,0,1-7-7.63l4-.57a19.52,19.52,0,0,0-4.4-4.71,11.41,11.41,0,0,0,4.18-.54l-3.33-3.63a13.69,13.69,0,0,0,4.6-.33c-1.24-1.7-3.53-2.13-5.43-3a5.26,5.26,0,0,1-3.07-5.54,1.68,1.68,0,0,0-2.21.66" transform="translate(0)"/><path class="cls-9" d="M215.93,46.63c.37-1.27,1.9-1.81,3.22-1.81a1.93,1.93,0,0,1,1.09.25.8.8,0,0,1,.31,1,7,7,0,0,0-2.23.37A2.37,2.37,0,0,0,216.83,48a1,1,0,0,1-1.28-.1,8.58,8.58,0,0,1-.88-1.11,3.51,3.51,0,0,0-3-1c.58-1.87,3.51-.56,4.27.79" transform="translate(0)"/><path class="cls-9" d="M254.18,28.05c.37-1.27,1.9-1.82,3.22-1.81a1.85,1.85,0,0,1,1.09.25.8.8,0,0,1,.31,1,6.69,6.69,0,0,0-2.23.37,2.37,2.37,0,0,0-1.49,1.59,1,1,0,0,1-1.28-.1,8,8,0,0,1-.88-1.12,3.57,3.57,0,0,0-3-1c.58-1.86,3.51-.55,4.27.8" transform="translate(0)"/><path class="cls-9" d="M227.91,40.44a2.23,2.23,0,0,1,2.26-1.27,1.35,1.35,0,0,1,.77.18.54.54,0,0,1,.21.69,4.82,4.82,0,0,0-1.56.26,1.62,1.62,0,0,0-1,1.12.69.69,0,0,1-.91-.07,6.55,6.55,0,0,1-.61-.78,2.5,2.5,0,0,0-2.12-.69c.41-1.3,2.47-.38,3,.56" transform="translate(0)"/><path class="cls-9" d="M222.47,34.42a1.79,1.79,0,0,1,1.8-1,1.09,1.09,0,0,1,.62.14.47.47,0,0,1,.17.56,3.73,3.73,0,0,0-1.25.21,1.26,1.26,0,0,0-.83.89.55.55,0,0,1-.73-.06,5,5,0,0,1-.49-.62,2,2,0,0,0-1.68-.55c.32-1,2-.31,2.39.45" transform="translate(0)"/><path class="cls-9" d="M281.48,28a1.79,1.79,0,0,1,1.81-1,1.08,1.08,0,0,1,.61.14.46.46,0,0,1,.17.56,3.77,3.77,0,0,0-1.25.21,1.28,1.28,0,0,0-.83.89.55.55,0,0,1-.73-.06,5,5,0,0,1-.49-.62,2,2,0,0,0-1.68-.55c.32-1,2-.31,2.39.45" transform="translate(0)"/><path class="cls-9" d="M240.43,29.7a1.8,1.8,0,0,1,1.81-1,1,1,0,0,1,.61.15.44.44,0,0,1,.18.55,3.73,3.73,0,0,0-1.25.21,1.33,1.33,0,0,0-.84.89.54.54,0,0,1-.72-.06,5,5,0,0,1-.49-.62,2,2,0,0,0-1.69-.55c.33-1,2-.31,2.39.45" transform="translate(0)"/><path class="cls-9" d="M205.06,46.58a1.78,1.78,0,0,1,1.81-1,1.08,1.08,0,0,1,.61.14.43.43,0,0,1,.17.55,4,4,0,0,0-1.25.21,1.32,1.32,0,0,0-.83.89.55.55,0,0,1-.72,0,7.68,7.68,0,0,1-.5-.63,1.92,1.92,0,0,0-1.68-.54c.32-1,2-.31,2.39.44" transform="translate(0)"/><path class="cls-9" d="M238.36,41.05c.38-1.27,1.9-1.82,3.23-1.81a1.85,1.85,0,0,1,1.09.25.78.78,0,0,1,.31,1,7,7,0,0,0-2.23.37,2.32,2.32,0,0,0-1.49,1.6,1,1,0,0,1-1.29-.11,8.58,8.58,0,0,1-.88-1.11,3.55,3.55,0,0,0-3-1c.57-1.86,3.51-.55,4.27.8" transform="translate(0)"/><path class="cls-9" d="M267.52,41a2.25,2.25,0,0,1,2.26-1.27,1.35,1.35,0,0,1,.77.18.54.54,0,0,1,.21.69,4.82,4.82,0,0,0-1.56.26,1.66,1.66,0,0,0-1,1.12.69.69,0,0,1-.9-.07,5.74,5.74,0,0,1-.62-.78,2.48,2.48,0,0,0-2.11-.69c.41-1.3,2.46-.38,3,.56" transform="translate(0)"/></g></svg>